<svg width="131" height="51" viewBox="0 0 131 51" fill="none" xmlns="http://www.w3.org/2000/svg">
<path d="M63.3779 24.2109C60.1101 24.2109 59.8429 21.724 59.8429 20.9841C59.8429 20.1209 60.0484 18.4973 62.1653 17.7163C64.3028 16.9353 64.7549 16.8531 66.2758 16.3598V15.9899C66.2758 15.25 66.2758 15.1267 66.1114 14.6334C65.8442 13.7908 65.0221 13.2153 63.8712 13.2153C62.7819 13.2153 61.857 13.8319 61.4254 14.7362L60.8089 14.3663C61.1788 13.0098 62.5764 11.6739 64.9605 11.6739C66.6047 11.6739 67.7556 12.1466 68.4338 13.1948C68.9476 14.0374 69.0093 15.1678 69.0093 16.3187C69.0093 17.3669 68.9476 18.5179 68.9476 19.4427C68.9476 20.0593 68.886 20.6553 68.886 20.9841C68.886 21.8268 69.0504 22.505 69.7286 22.505C70.0369 22.505 70.0986 22.4023 70.3452 22.2378L70.7151 22.7106C70.0986 23.5532 69.3587 24.2314 68.1666 24.2314C67.2418 24.2314 66.5636 23.7587 66.2758 22.9983C65.8648 23.5327 64.8782 24.2109 63.3779 24.2109ZM66.2553 17.8396C64.6522 18.3123 64.0562 18.5795 63.604 18.8261C62.8641 19.1961 62.5558 19.8743 62.5558 20.7375C62.5558 21.4158 62.823 22.505 64.385 22.505C64.8988 22.505 65.6181 22.4023 66.2964 21.9296V17.8191L66.2553 17.8396ZM39.2082 23.5532C39.2082 22.3406 39.2082 21.313 39.1055 20.0798H39.8454C39.8454 20.8608 40.0509 21.4363 40.4208 21.7857C40.9346 22.3612 42.1267 22.7106 43.216 22.7106C45.4973 22.7106 46.5866 21.8474 46.5866 19.9565C46.5866 18.3534 45.6 17.6752 44.2641 16.7298L44.0586 16.5654L42.5994 15.5789C40.5852 14.2224 39.5371 13.1948 39.5371 11.0573C39.5371 10.0091 39.9481 6.57688 44.9835 6.57688C46.2783 6.57688 47.943 6.7413 48.9295 6.88517C48.9295 7.04959 48.8679 7.81003 48.8679 8.48826C48.8679 9.26925 48.8679 9.47478 48.9295 10.3996H48.313C48.313 9.55698 48.0458 9.04317 47.6964 8.69378C47.2237 8.22108 46.155 7.95389 45.004 7.95389C42.3117 7.95389 42.0034 9.31036 42.0034 10.338C42.0034 11.7561 42.7433 12.2494 44.3258 13.2975L46.155 14.5101C47.6964 15.5583 49.1556 16.5243 49.1556 19.1344C49.1556 23.4915 45.0451 23.9643 43.3393 23.9643C41.7567 24.2109 40.4414 23.9643 39.2082 23.5532ZM71.825 12.4549C72.4416 12.5165 73.3664 12.4549 74.2707 12.2905C75.0517 12.126 75.3189 12.0233 75.8738 11.7767L76.141 11.9411V12.8659C76.7576 12.3932 77.9702 11.715 79.676 11.715C81.8751 11.715 83.2727 12.7632 83.6632 14.5718C83.766 15.0445 83.8276 16.1132 83.8276 16.7709V20.3059C83.8276 22.279 83.9304 22.8544 84.3003 23.2244C84.5059 23.3888 84.9169 23.5943 85.5129 23.5943V24.1698C84.7319 24.1081 83.3138 24.067 82.5123 24.067C81.423 24.067 80.1898 24.1287 79.5116 24.1698V23.5943C80.1282 23.5327 80.4981 23.3271 80.7242 23.1833C81.0941 22.8133 81.1352 22.1351 81.1969 20.6348C81.1969 20.1621 81.2586 19.2166 81.2586 18.559C81.2586 17.6958 81.2586 16.7298 81.1558 15.8049C80.9914 14.2635 80.1693 13.5236 78.6073 13.5236C77.518 13.5236 76.8398 13.7908 76.326 14.0374V20.3676C76.326 22.3406 76.4287 22.9161 76.7987 23.286C77.0042 23.4504 77.4769 23.656 77.9496 23.656V24.2314C76.9631 24.1698 75.7505 24.1287 74.9901 24.1287C73.387 24.1287 72.8526 24.1903 71.9277 24.2314V23.6354C72.4416 23.6354 72.9759 23.4299 73.2225 23.1216C73.5925 22.7106 73.6336 21.6624 73.6336 19.6482V16.031C73.6336 14.5101 73.5719 13.8936 73.3664 13.5853C73.202 13.3181 72.7909 13.1126 71.9483 13.1126V12.4343H71.8455V12.4549H71.825ZM86.8488 23.5327C87.3626 23.5327 87.897 23.3682 88.1436 23.0188C88.5136 22.6078 88.5547 21.5596 88.5547 19.5455V13.5031H87.0132V12.8248C87.6915 12.5576 88.2464 12.2494 88.5547 11.9822C88.5547 10.8929 88.6163 9.53643 88.7602 8.75544C89.2329 6.26859 90.836 5.01489 93.59 5.01489C94.8026 5.01489 95.9125 5.42594 96.6524 6.00141L96.714 6.26859L95.5014 7.91279H95.1931C94.7821 6.92627 94.145 6.37135 93.0557 6.37135C92.6857 6.37135 92.1925 6.47412 91.8431 6.7824C91.3293 7.29622 91.2265 8.07721 91.2265 9.6392V11.9616H93.9189V13.4825H91.2471V20.1826C91.2471 21.7857 91.3087 22.5667 91.5142 22.875C91.8225 23.3888 92.9324 23.4504 93.4256 23.4504V24.067C92.5624 24.0054 91.1443 23.9643 90.1578 23.9643C88.6369 23.9643 87.6709 24.0259 86.8899 24.067L86.8488 23.5327ZM100.763 24.2931C97.084 24.2931 94.9054 22.0118 94.9054 18.1685C94.9054 15.1678 96.5085 11.6739 101.03 11.6739C104.709 11.6739 106.887 13.9552 106.887 17.7985C106.887 20.7992 105.264 24.2931 100.763 24.2931ZM100.927 13.0715C100.187 13.0715 99.6325 13.277 99.2214 13.6469C98.2349 14.4896 97.7622 15.9282 97.7622 18.0657C97.7622 18.9084 97.9266 22.9572 100.886 22.9572C101.626 22.9572 102.181 22.7517 102.592 22.3817C103.579 21.5391 104.051 20.1004 104.051 17.9629C104.031 17.1203 103.887 13.0715 100.927 13.0715ZM108.121 12.3932C108.963 12.4549 109.826 12.3316 110.772 12.1877C111.512 12.0849 111.984 11.9205 112.231 11.7767L112.437 11.8794V12.9276C113.012 12.3521 113.958 11.7767 115.232 11.7767C116.157 11.7767 116.773 12.0438 117.369 12.5165V12.8865L116.321 14.7773H115.807C115.499 14.2018 114.882 13.688 113.793 13.688C113.279 13.688 112.868 13.7908 112.498 14.058V20.2443C112.498 21.8474 112.56 22.5667 112.765 22.8955C113.074 23.4093 114.122 23.471 114.677 23.4093V24.0876C113.834 24.0259 112.396 23.9848 111.409 23.9848C110.258 23.9848 109.087 23.9848 108.141 24.0876V23.471C108.819 23.4093 109.189 23.2655 109.436 22.9572C109.806 22.5461 109.847 21.5391 109.847 19.4838V16.0927C109.847 14.5718 109.847 13.9552 109.58 13.6469C109.374 13.3797 108.963 13.2359 108.162 13.2359V12.4549L108.121 12.3932ZM125.118 5.75478C125.857 5.75478 126.762 5.59036 127.974 5.38484C128.653 5.28207 129.064 5.11766 129.269 5.07655L129.475 5.17931C129.372 6.16583 129.372 8.40605 129.372 10.0091V19.8743C129.372 21.3335 129.372 22.2584 129.577 22.5667C129.783 22.8339 130.194 23.0394 130.996 23.0394V23.656C130.215 23.656 129.351 23.7587 128.406 23.9232C127.789 24.0259 127.317 24.1287 127.049 24.2314L126.741 24.1287V23.0805C126.125 23.5532 124.974 24.2314 123.371 24.2314C120.041 24.2314 117.924 21.9501 117.924 18.374C117.924 17.1614 118.13 16.0927 118.541 15.1061C119.589 12.907 121.665 11.6739 124.295 11.6739C125.282 11.6739 126.125 11.7767 126.618 11.8794V9.2898C126.618 7.76892 126.618 7.00848 126.351 6.63854C126.186 6.37135 125.94 6.26859 125.056 6.22749V5.73423L125.118 5.75478ZM124.706 22.5256C125.549 22.5256 126.125 22.4228 126.679 22.0529V13.9552C126.474 13.7497 125.755 13.1126 124.295 13.1126C121.973 13.1126 120.822 14.7157 120.822 18.0657C120.76 19.4633 121.171 22.5256 124.706 22.5256ZM58.6303 22.8955C58.2604 23.3682 57.3355 24.3136 55.3625 24.3136C53.4716 24.3136 52.444 23.6354 51.9919 22.1145C51.7863 21.5391 51.7863 20.347 51.7863 19.6688C51.7863 17.7574 51.7863 16.1954 51.848 14.3663V13.5236H50.2243V13.0509C50.8409 12.7837 51.3136 12.5371 51.7452 12.2083C52.6701 11.4684 53.2867 10.6052 53.9855 9.2898H54.4993V11.9822H58.6098V13.5031H54.4993V19.8332C54.4993 21.7446 54.8692 22.7928 56.6367 22.7928C57.4794 22.7928 58.0548 22.5256 58.3426 22.3201L58.6303 22.8955Z" fill="#23201F"/>
<path d="M106.436 33.8499C106.231 33.8499 105.964 33.9116 105.82 34.0554C105.655 34.1582 105.655 34.3226 105.655 34.4254C105.655 34.6309 105.717 34.7953 105.861 35.2064L107.012 38.207C107.176 38.6797 107.32 39.0497 107.382 39.2963L108.8 35.1858C108.964 34.7131 109.005 34.6103 109.005 34.4048C109.005 34.3021 108.944 34.1993 108.841 34.0965C108.677 33.9938 108.471 33.891 108.224 33.891V33.4183C108.389 33.4183 108.738 33.4183 108.903 33.48C109.067 33.48 109.375 33.5416 109.643 33.5416C110.156 33.5416 110.876 33.48 111.184 33.48V33.9527C110.978 34.0143 110.506 33.891 110.095 35.1036L107.135 42.9957C106.724 44.1467 106.149 45.5443 104.134 45.5443C103.292 45.5443 102.716 45.3387 102.244 44.9277V44.7222L102.984 43.8589H103.189C103.395 44.3317 103.806 44.5372 104.402 44.5372C105.327 44.5372 105.758 43.6945 106.375 42.0503L106.539 41.5776L104.052 35.1036C104.052 35.0419 103.991 34.9392 103.949 34.8364C103.888 34.672 103.744 34.3637 103.744 34.3637C103.58 34.0554 103.333 33.9527 103.004 33.9527V33.48C103.477 33.5416 104.299 33.5416 104.71 33.5416C104.977 33.5416 105.388 33.5416 105.799 33.48C106.005 33.48 106.375 33.4183 106.539 33.4183V33.8293H106.457V33.8499H106.436ZM78.9372 33.7471C79.451 33.8088 80.0264 33.6855 80.5813 33.5827C81.0541 33.48 81.3212 33.4183 81.5062 33.3155L81.6706 33.3772V34.0554C82.0406 33.6855 82.5955 33.3155 83.4381 33.3155C84.0547 33.3155 84.4247 33.48 84.7946 33.7882V34.0554L84.178 35.268H83.8697C83.6642 34.8981 83.2943 34.5898 82.5749 34.5898C82.2666 34.5898 81.9995 34.6926 81.7323 34.857V38.7619C81.7323 39.8101 81.7939 40.2828 81.8967 40.4678C82.1022 40.7761 82.7394 40.8377 83.1093 40.8377V41.2488C82.5955 41.1871 81.6501 41.1871 81.0335 41.1871C80.2936 41.1871 79.5126 41.1871 78.9577 41.2899V40.8788C79.3688 40.8788 79.6359 40.7144 79.8004 40.5706C80.0675 40.3034 80.0675 39.7074 80.0675 38.3303V36.1312C80.0675 35.2064 80.0675 34.7748 79.9031 34.5898C79.8004 34.4254 79.4921 34.3226 79.0399 34.3226V33.7471H78.9577H78.9372ZM44.3474 41.2693C42.1483 41.2693 40.874 40.5911 40.4013 39.1319C40.1341 38.392 40.1341 37.4877 40.1341 36.7478V32.5962C40.1341 31.3631 40.0725 31.137 39.8258 30.952C39.7231 30.8492 39.4559 30.7465 39.0859 30.6848V30.2738C39.5997 30.3354 40.5041 30.3765 40.9973 30.3765C41.8605 30.3765 42.4154 30.3765 42.9704 30.2738V30.7465C42.6004 30.7465 42.3538 30.8492 42.1277 31.0548C41.8605 31.322 41.8605 31.7947 41.8605 33.1306V36.8095C41.8605 39.0086 42.066 40.4061 44.5118 40.4061C46.9986 40.4061 47.1631 38.9469 47.1631 36.7272V32.6784C47.1631 31.4453 47.1014 31.2192 46.8548 31.0342C46.6903 30.9315 46.4437 30.8287 46.1149 30.767V30.356C46.5876 30.356 47.2042 30.4176 47.8207 30.4176C48.3962 30.4176 48.9717 30.4176 49.6499 30.3149V30.7876C49.28 30.7876 49.0333 30.8903 48.8072 31.0959C48.5401 31.3631 48.5401 31.8358 48.5401 33.1717V36.2956C48.5401 37.2822 48.5401 38.3714 48.2318 39.2552C47.7796 40.6117 46.5259 41.2693 44.3474 41.2693ZM59.1657 40.7966C59.5767 40.735 59.8439 40.6939 60.0289 40.4883C60.2961 40.2212 60.2961 39.6251 60.2961 38.2481V36.049C60.2961 35.1242 60.2961 34.6309 60.1317 34.4459C60.0289 34.2815 59.8234 34.1787 59.2684 34.1376V33.6649C59.5767 33.7266 60.4194 33.6033 61.036 33.5005C61.3442 33.4389 61.6525 33.3361 61.8786 33.2333L62.043 33.3977C61.9814 33.9116 61.9814 35.0008 61.9814 36.4601V38.7003C61.9814 39.7485 62.043 40.2212 62.1458 40.4061C62.3102 40.6117 62.6185 40.7761 63.0707 40.7761V41.146C62.6596 41.0844 61.8581 41.0844 61.1798 41.0844C60.3988 41.0844 59.5767 41.146 59.1657 41.1871V40.7966ZM61.0771 31.918C60.4605 31.918 60.0905 31.548 60.0905 30.9931C60.0905 30.4382 60.5016 30.0066 61.1387 30.0066C61.7553 30.0066 62.1252 30.3765 62.1252 30.9315C62.1047 31.548 61.6936 31.918 61.0771 31.918ZM91.988 40.7966C92.399 40.735 92.6662 40.6939 92.8512 40.4883C93.1183 40.2212 93.1184 39.6251 93.1184 38.2481V36.049C93.1184 35.1242 93.1183 34.6309 92.9539 34.4459C92.8512 34.2815 92.6456 34.1787 92.0907 34.1376V33.6649C92.399 33.7266 93.2417 33.6033 93.8582 33.5005C94.1665 33.4389 94.5365 33.3361 94.7009 33.2333L94.8653 33.3977C94.8037 33.9116 94.8036 35.0008 94.8036 36.4601V38.7003C94.8036 39.7485 94.8653 40.2212 94.9681 40.4061C95.1325 40.6117 95.4408 40.7761 95.8929 40.7761V41.146C95.4202 41.0844 94.6598 41.0844 93.9815 41.0844C93.2006 41.0844 92.3785 41.146 91.9674 41.1871V40.7761H91.988V40.7966ZM93.8993 31.918C93.2828 31.918 92.9128 31.548 92.9128 30.9931C92.9128 30.4382 93.3239 30.0066 93.961 30.0066C94.5776 30.0066 94.9475 30.3765 94.9475 30.9315C94.9475 31.548 94.5159 31.918 93.8993 31.918ZM85.6989 40.8994C85.6989 40.1184 85.6373 39.2963 85.5961 38.8853H86.11C86.11 39.2963 86.2127 39.6662 86.4182 39.8718C86.7265 40.2417 87.0965 40.3856 87.7747 40.3856H87.8775C88.7201 40.3856 89.1723 40.0156 89.1723 39.2963C89.1723 38.7208 88.8023 38.4537 88.1858 38.0837L87.0965 37.4055C86.521 37.0355 85.8633 36.5423 85.8633 35.4324C85.8633 34.5692 86.2333 33.891 86.9526 33.5211C87.4253 33.2539 88.1652 33.2539 88.494 33.2539C89.1106 33.2539 90.0149 33.3566 90.5082 33.4594C90.4465 33.6649 90.4465 34.1993 90.4465 34.3843C90.4465 34.5487 90.4465 35.2475 90.5082 35.4324H89.9944C89.9944 35.1242 89.8916 34.8159 89.6861 34.5692C89.4806 34.3021 89.0079 34.1582 88.4529 34.1582C87.6719 34.1582 87.2403 34.4665 87.2403 35.1447C87.2403 35.6585 87.6514 35.9257 88.0213 36.1929H88.083L89.1312 36.8095C89.8094 37.2205 90.6726 37.7343 90.6726 38.9469C90.6726 40.9611 88.7818 41.2693 87.713 41.2693C87.0965 41.2077 86.4388 41.1666 85.6989 40.8994ZM101.997 40.4061C101.73 40.6733 101.154 41.2693 99.9212 41.2693C98.7086 41.2693 98.0304 40.8583 97.7837 39.8512C97.681 39.4813 97.681 38.7003 97.681 38.3098C97.681 37.0766 97.681 36.0696 97.681 34.9392V34.4254H96.6328V34.1171C97.0439 33.9527 97.311 33.8088 97.6193 33.6033C98.1948 33.1306 98.6059 32.5551 99.0786 31.7124H99.4485V33.4183H102.038V34.3432H99.4485V38.4331C99.4485 39.6457 99.654 40.3445 100.805 40.3445C101.319 40.3445 101.668 40.1801 101.894 40.0362L101.997 40.4061ZM66.8729 33.4389C66.7084 33.4389 66.359 33.4389 66.133 33.5005C65.7219 33.5005 65.2903 33.5622 64.982 33.5622C64.4066 33.5622 63.5639 33.5005 63.3378 33.5005V33.9732C63.4406 33.9732 63.8516 33.9116 64.1188 34.4459C64.2216 34.6514 64.2832 34.8159 64.3244 34.9186C64.386 35.0214 64.4271 35.1242 64.4271 35.1858L66.914 41.4132L67.695 41.2488L70.449 35.1242C70.449 35.0625 70.5106 35.0214 70.5517 34.9186C70.6134 34.857 70.6134 34.7542 70.8189 34.4459C70.9834 34.1376 71.3327 33.9732 71.5999 33.9732V33.5005C71.2916 33.5005 70.6134 33.5622 70.079 33.5622C69.8119 33.5622 69.5652 33.5622 69.2981 33.5005C69.0925 33.5005 68.7842 33.4389 68.5582 33.4389V33.8499C68.8253 33.8499 69.072 33.9527 69.1747 34.0554C69.2364 34.1171 69.3392 34.2609 69.3392 34.3637C69.3392 34.5281 69.2775 34.672 69.1336 35.1447L67.6127 38.8236C67.5511 38.6181 67.4483 38.3098 67.3045 37.8987L66.2563 35.1447C66.0919 34.7337 66.0508 34.5692 66.0508 34.3637C66.0508 34.2609 66.0508 34.1582 66.1535 34.0965C66.3179 33.9321 66.5646 33.8293 66.8318 33.8293V33.4183V33.4389H66.8729ZM49.9171 33.7471C50.3281 33.8088 50.9036 33.7471 51.4585 33.6444C51.9312 33.5416 52.1367 33.48 52.5067 33.3361L52.6711 33.4389V34.0554C53.0411 33.7471 53.8837 33.3155 54.9113 33.3155C56.3295 33.3155 57.1927 33.9938 57.4598 35.1447C57.5215 35.453 57.5626 36.1312 57.5626 36.5628V38.803C57.5626 40.0362 57.6243 40.4061 57.8709 40.6939C57.9736 40.7966 58.2819 40.8994 58.6108 40.8994V41.2693C58.097 41.2693 57.1927 41.2077 56.6994 41.2077C55.9595 41.2077 55.1785 41.2693 54.788 41.3104V40.8994C55.158 40.8377 55.4046 40.735 55.569 40.6322C55.7745 40.4267 55.8362 39.954 55.8773 39.0291C55.8773 38.7208 55.8773 38.1659 55.8773 37.6727C55.8773 37.0972 55.8773 36.4601 55.8156 35.9051C55.7129 34.9186 55.1991 34.4459 54.2125 34.4459C53.5343 34.4459 53.0616 34.6103 52.7533 34.7542V38.8236C52.7533 40.0567 52.815 40.4267 53.0616 40.7144C53.1644 40.8172 53.4727 40.9199 53.8015 40.9199V41.2899C53.1233 41.1255 52.3423 41.1255 51.8285 41.1255C50.7803 41.1255 50.472 41.1255 49.9171 41.2282V40.8583C50.2254 40.8583 50.5953 40.7555 50.7597 40.55C50.9653 40.2828 51.0269 39.6251 51.0269 38.3098V36.1107C51.0269 35.1858 51.0269 34.7542 50.8625 34.5692C50.7597 34.4048 50.4926 34.2609 49.9993 34.3021V33.7266L49.9171 33.7471ZM75.1555 41.2693C72.8331 41.2693 71.5588 39.9129 71.5588 37.4671C71.5588 37.0561 71.6616 33.2539 75.1966 33.2539C76.2448 33.2539 77.1696 33.6649 77.5807 34.4048C78.0534 35.1447 78.0945 35.864 78.0945 36.4806V36.9533H73.2647C73.2647 37.3644 73.3263 37.6932 73.3674 37.9398C73.6346 39.4607 74.4567 40.1801 75.9159 40.1801C76.7586 40.1801 77.2724 40.0156 77.7451 39.7074L77.9506 40.0773C77.4368 40.7761 76.4092 41.2693 75.1555 41.2693ZM73.2852 36.0901H76.2859C76.2859 35.1653 76.1215 34.1171 74.765 34.1171C73.5935 34.1787 73.3469 35.2886 73.2852 36.0901Z" fill="#23201F"/>
<path d="M7.11115 0L0 6.94673V25.6289L6.16574 31.9385H9.00198C8.94032 32.1235 8.83756 32.4112 9.04308 32.699C9.24861 33.0072 9.61855 33.0072 9.76242 33.0072C9.92684 33.0072 10.1529 32.9867 10.5229 32.9456C10.5229 32.9456 10.6667 33.0689 10.2146 33.2333C9.84463 33.3566 9.51579 33.5827 9.41302 33.9527C9.41302 33.9732 9.41303 34.0143 9.39247 34.0349H0V43.5918L7.11115 50.5796H25.7933L32.9045 43.6123V25.6906L26.7387 19.4015H21.4979C21.2718 19.2577 21.0252 19.1138 20.8196 18.9699L20.7374 18.9288H20.7169C20.5936 18.8466 20.4702 18.7644 20.3469 18.6411C20.2236 18.5383 20.1414 18.4561 20.0592 18.3739L20.0386 18.3533C19.8948 18.2095 19.7715 18.0656 19.6893 17.9423C20.5114 18.1684 21.3951 18.23 21.8267 18.2506H21.8678C21.8884 18.2506 21.9295 18.2506 21.95 18.2506H21.9911C22.0939 18.2506 22.1761 18.2711 22.2172 18.2917C22.2789 18.3122 22.32 18.3328 22.3611 18.3533L22.5871 18.4356C22.6488 18.4561 22.6899 18.4561 22.7516 18.4561C23.0804 18.4561 23.3681 18.2711 23.512 17.9628C23.5531 17.8601 23.6353 17.6546 23.5737 17.3874H32.9045V6.96728L25.7728 0H7.11115Z" fill="#23201F"/>
<path d="M32.0424 7.33706L25.445 0.863037H7.44109L0.84375 7.31651V25.2794L6.51623 31.0751H10.1746C9.76352 31.4451 9.6402 31.8356 9.57854 32.0206C9.43468 32.4316 9.29081 32.5549 10.5651 32.37C10.9761 32.3083 11.716 32.0411 12.0654 31.815C12.4148 31.589 13.0725 31.7739 13.0314 32.2672C12.7231 33.0482 11.901 33.5209 11.12 33.6237C9.33191 33.8497 10.1129 34.5074 10.1129 34.5074C10.3184 34.6513 10.4417 34.7746 10.5445 34.8979H9.68131H0.84375V43.2217L7.44109 49.6957H25.445L32.0424 43.2217V26.0603L26.3699 20.2851H21.7867C21.4168 20.0385 20.9235 19.7713 20.4713 19.4836C20.3069 19.3808 20.122 19.2575 19.9781 19.1136C19.8342 19.0109 19.7315 18.8875 19.6287 18.7848C19.2382 18.3737 18.9299 17.9421 18.8477 17.7366C18.7038 17.3667 18.7244 16.9145 19.0738 17.0995C19.9164 17.5927 21.314 17.6749 21.8278 17.6955C21.8895 17.6955 22.3005 17.7366 22.4033 17.7777C22.506 17.8188 22.6705 17.901 22.6705 17.901C22.876 17.9832 23.2665 17.6955 22.8143 17.1611C22.691 16.9762 22.5266 16.7706 22.3211 16.5446H32.0629L32.0424 7.33706Z" fill="white"/>
<path d="M7.78665 1.72632L1.70312 7.68653V24.9095L6.88234 30.212H11.7533C12.5754 29.8421 12.7603 29.8832 12.9864 29.4105C13.0275 29.3283 13.0481 29.1227 13.0686 28.9172C13.0892 28.8556 13.1919 28.239 12.8837 28.3829C12.3699 28.65 11.3217 27.9513 10.5201 28.3623C9.73914 28.7734 10.3146 27.8279 10.4174 27.6635C10.4174 27.6635 10.8284 27.1086 11.4655 26.7387C11.4861 26.7181 11.5066 26.7181 11.5272 26.6976C11.5889 26.6564 11.6505 26.6359 11.7122 26.5948C12.1849 26.3687 13.5619 25.4439 13.8085 25.1767C13.9524 25.0123 14.2196 24.6218 14.2196 24.4162C14.2607 24.2313 14.3018 23.9435 14.1168 23.8408C13.8496 23.6763 13.6441 24.0052 13.2331 24.1902C12.822 24.3751 12.5137 24.4573 12.1438 24.4573C11.7944 24.4779 11.445 24.334 11.2395 24.3751C11.0339 24.4162 10.9106 24.2518 11.3011 23.8613C11.4861 23.6763 11.5478 23.6147 11.63 23.553C12.5548 22.957 13.3769 22.957 13.8291 21.9088C13.8291 21.9088 14.1785 20.9634 13.5002 21.3745C13.1303 21.6005 12.9042 21.9088 11.8355 21.9088C10.7462 21.9088 10.3352 22.4226 10.1502 22.6487C10.1502 22.6487 9.4103 23.6763 9.59527 22.2377C9.78024 20.799 10.068 20.0591 10.7462 19.5042C11.3422 19.0315 12.7809 18.3738 13.3153 17.6545C13.5824 17.3873 14.2607 16.6063 13.8702 15.9692C13.7058 15.702 13.2947 16.4008 12.8837 16.5035C12.411 16.6268 11.7944 16.7913 11.3422 16.6885C10.7668 16.5652 10.3968 16.7913 10.1913 16.894C9.98576 16.9968 9.57472 16.6885 10.068 16.113C10.7257 15.3526 12.3287 14.3661 13.3975 13.7906C13.5413 13.729 13.9113 13.5645 14.2401 13.359H14.2607C14.3429 13.3179 14.4662 13.2562 14.5279 13.1535C14.7539 12.948 14.9184 12.7424 14.8772 12.5164C14.8361 12.3108 14.7334 12.2492 14.4045 12.2081C14.1579 12.1875 13.7263 12.4753 13.3769 12.4547C12.8426 12.4136 12.041 12.5369 12.3082 12.1464C12.5548 11.797 12.9453 11.5709 13.0686 11.5093C13.2947 11.4065 13.5824 11.2832 14.014 11.0777C14.6923 10.7694 14.6101 9.98841 14.3429 9.96785C13.9318 9.92675 12.822 10.2761 13.603 9.39239C13.603 9.39239 13.9729 9.02244 14.3429 8.77581C14.6306 8.61139 14.8772 8.52918 15.1855 8.42642C15.3705 8.36476 15.8432 7.93316 14.7128 7.89206C14.7128 7.89206 14.0757 7.91261 14.199 7.62487C14.3018 7.4399 14.8567 7.06996 14.8567 7.06996C14.8567 7.06996 15.3089 6.76167 15.4938 6.5767C15.6788 6.41228 15.8021 6.26841 15.7816 6.12454C15.7816 5.96012 15.3294 5.73405 15.1444 5.48742C15.0006 5.323 15.1239 5.26134 15.2061 5.24079C15.2472 5.24079 15.2883 5.22024 15.35 5.22024C15.8021 5.22024 15.946 4.76808 16.2132 3.55549C16.2954 3.2061 16.2954 3.12389 16.4187 3.12389C16.4392 3.12389 16.4392 3.12389 16.4392 3.12389C16.4392 3.12389 16.5626 3.74046 16.727 4.41869C16.8708 4.78863 17.0147 4.95305 17.3024 4.95305C17.3641 4.95305 17.4052 4.95305 17.4463 4.97361C17.5285 4.99416 17.6313 5.05582 17.508 5.22024C17.4052 5.3641 17.0969 5.56963 17.0764 5.69294C16.9942 6.06289 17.3435 6.20675 17.7135 6.22731C18.2273 6.26841 18.0218 6.5767 17.4669 6.98775C16.9325 7.37824 18.3095 8.24145 18.3095 8.24145C19.0905 8.83747 18.5356 9.00189 18.3712 9.0841C18.2067 9.16631 17.7751 9.43349 18.2067 9.59791C18.6589 9.76233 19.2549 10.3789 19.2549 10.3789C20.0359 11.2832 18.9261 10.9133 18.515 10.9544C18.2479 10.9749 18.1451 11.7559 18.8439 12.0642C19.892 12.5369 20.1181 12.6191 20.4881 12.8863C21.1869 13.4001 20.8169 13.8317 19.9537 13.6878C19.9537 13.6878 19.3988 13.544 19.0083 13.6262C18.7617 13.6673 18.5972 13.729 18.4945 13.7906C18.4328 13.8728 18.289 14.2428 19.5016 14.6127C20.077 14.7977 20.7758 15.2293 21.4129 15.7225H31.237V7.74819L25.0918 1.72632H7.78665ZM22.6255 21.1278C22.9133 21.6005 23.0777 22.2171 23.201 23.1009C23.201 23.6352 22.4817 23.3886 22.2556 23.2447C22.0912 23.142 21.8856 23.0392 21.5979 22.957C21.0841 22.8337 19.8304 22.2788 19.5016 22.176C19.1522 22.0527 18.9055 22.2993 18.8644 22.4021C18.7822 22.5665 18.9672 22.8953 18.9672 22.8953C19.4604 24.0052 20.3442 23.9435 21.3307 24.6423C22.6872 25.6083 21.9678 25.8138 21.6801 25.6699C21.4129 25.5261 20.9402 25.6083 20.9402 25.6083C19.8509 25.9166 19.5221 25.4439 18.885 25.2794C18.2479 25.115 18.7617 25.896 19.0083 26.1632C19.2549 26.4509 20.6319 27.3758 21.1046 27.5813C22.1528 28.0746 22.6872 28.8556 23.016 29.8626C23.3243 30.808 22.9955 30.6025 22.7488 30.4792C22.5022 30.3559 22.42 30.1093 21.8034 30.1298C21.1869 30.1504 20.8375 30.0887 20.3853 29.7599C20.262 29.6777 20.1798 29.5749 20.0976 29.4721C20.0976 29.4721 20.0976 29.4721 20.077 29.4721C19.6454 29.1433 19.7276 30.2326 19.8304 30.397C20.1387 31.0136 20.3442 30.7669 22.1117 31.7124C22.9544 32.1645 23.1393 32.7605 23.2421 33.0072C23.386 33.4182 23.5298 33.5415 22.2556 33.3566C21.8445 33.2949 21.1046 33.0483 20.7553 32.8016C20.4264 32.5756 19.7482 32.7605 19.8098 33.2538C20.1181 34.0348 20.9402 34.5075 21.7212 34.6102C22.3994 34.6925 22.7077 34.8363 22.831 35.0007C23.201 35.4323 22.5228 36.0489 22.5228 36.0489C22.1734 36.4394 22.5433 36.9121 22.8105 37.056C23.2215 37.2615 24.0231 37.7548 24.2903 38.433C25.6878 42.0091 24.3314 40.9815 23.6737 40.5705C23.016 40.1594 21.7623 39.1112 20.6114 39.1934C19.4604 39.2757 19.0905 39.3373 18.3917 38.803C17.7135 38.2686 17.7751 39.1318 17.7751 39.1318V43.4478C17.8163 44.4138 18.0012 45.3386 18.7617 46.1196C19.3988 46.7568 19.8715 46.654 20.7553 47.7227C21.1663 48.216 22.5022 48.7503 23.386 48.7709H25.0918L31.1753 42.7901V26.3482L25.9961 21.0662L22.6255 21.1278ZM1.70312 35.7612V42.8518L7.78665 48.8326H9.73914C11.5889 48.7503 12.2671 47.3117 12.822 46.4279C13.2331 45.7702 13.9935 45.1948 14.4662 44.7221C14.9595 44.2082 15.0622 43.0573 15.0622 41.8036V39.1934V39.214V38.5974V38.1864V38.0836V36.9532C15.0622 36.686 14.7539 36.6655 14.0963 37.3848C13.4386 38.1042 12.3082 38.0425 11.6711 38.1042C11.0339 38.1658 9.16367 39.1318 8.64986 39.8306C8.32102 40.2622 7.84831 39.9128 8.05383 39.0496C8.13604 38.6591 8.30046 38.1453 8.56765 37.467C8.93759 36.5216 10.3146 35.9667 10.3146 35.9667C10.3146 35.9667 10.4585 35.9051 10.5818 35.7817L1.70312 35.7612Z" fill="#23201F"/>
</svg>
