<svg width="924" height="158" viewBox="0 0 924 158" fill="none" xmlns="http://www.w3.org/2000/svg">
<path d="M19.7705 15.68H145.211V142.484H19.7705V15.68Z" fill="white"/>
<path d="M19.7705 15.68H145.211V142.484H19.7705V15.68Z" stroke="#231F20" stroke-width="6.81741"/>
<path d="M197.705 61.3567H204.522L221.566 83.1724V60.6749H229.747V96.8072H222.929L204.522 74.3098V96.8072H197.705V60.6749M243.381 61.3567H270.651V68.1741H250.88V74.9915H267.924V81.8089H250.88V89.9898H270.651V96.8072H243.381V60.6749M279.514 61.3567H288.376L295.194 85.2176L303.375 60.6749H310.192L318.373 85.2176L325.872 60.6749H334.053L321.782 96.8072H314.964L306.783 73.628L298.602 96.8072H291.785L279.514 61.3567ZM374.957 82.4907L361.322 61.3567H370.867L379.729 76.355L387.91 61.3567H397.455L383.82 83.1724V96.8072H374.957V83.1724M402.227 79.082C402.227 68.8558 409.726 60.6749 420.634 60.6749C431.542 60.6749 439.723 68.8558 439.723 79.082C439.723 89.3081 431.542 97.4889 420.634 97.4889C409.726 97.4889 402.227 88.6263 402.227 79.082ZM432.224 79.082C432.224 72.2645 427.451 67.4924 421.316 67.4924C414.498 67.4924 410.408 72.9463 410.408 79.082C410.408 85.2176 415.18 89.9898 421.316 89.9898C428.133 89.9898 432.224 85.2176 432.224 79.082ZM451.994 61.3567H468.356C473.128 61.3567 476.537 62.0384 478.582 64.7654C480.627 66.8106 481.991 69.5376 481.991 72.9463C481.991 78.4002 478.582 82.4907 473.81 83.8541L482.672 96.8072H473.81L465.629 85.2176H459.493V96.8072H451.994V60.6749M467.674 78.4002C471.764 78.4002 473.81 76.355 473.81 73.628C473.81 69.5376 471.083 68.1741 466.992 68.1741H460.175V78.4002H467.674ZM494.262 61.3567H501.761V76.355L516.078 61.3567H525.622L511.305 76.355L526.304 96.8072H516.759L505.852 81.8089L501.761 85.8994V96.8072H494.262V60.6749M556.3 81.8089V61.3567H563.799V81.8089C563.799 87.2628 567.208 89.9898 571.98 89.9898C576.753 89.9898 579.48 87.2628 579.48 81.8089V61.3567H587.66V81.8089C587.66 92.035 580.843 97.4889 571.98 97.4889C562.436 97.4889 556.3 92.035 556.3 81.1272M599.932 61.3567H608.113L624.474 83.1724V60.6749H632.655V96.8072H625.838L608.113 74.3098V96.8072H600.613V60.6749M646.29 60.6749H654.471V96.1255H646.29V60.6749ZM665.379 61.3567H674.241L683.104 85.8994L692.648 60.6749H700.829L687.195 96.8072H680.377L664.697 61.3567M711.737 61.3567H739.007V68.1741H719.918V74.9915H736.28V81.8089H719.918V89.9898H739.007V96.8072H711.737V60.6749M751.278 61.3567H767.64C771.73 61.3567 775.821 62.0384 777.866 64.7654C779.911 66.8106 781.275 69.5376 781.275 72.9463C781.275 78.4002 777.866 82.4907 773.094 83.8541L781.956 96.8072H773.094L764.913 85.2176H758.777V96.8072H751.278V60.6749M766.958 78.4002C771.049 78.4002 773.094 76.355 773.094 73.628C773.094 69.5376 770.367 68.1741 766.276 68.1741H759.459V78.4002H766.958ZM790.819 91.3533L795.591 85.8994C798.318 88.6263 802.409 89.9898 805.817 89.9898C809.226 89.9898 811.271 89.3081 811.271 87.2628C811.271 84.5359 809.908 83.8541 804.454 82.4907C796.955 80.4454 792.183 78.4002 792.183 71.5828C792.183 64.7654 797.637 60.6749 804.454 60.6749C809.342 60.3617 814.18 61.8132 818.089 64.7654L813.998 71.5828C810.59 68.8558 807.181 67.4924 804.454 67.4924C801.727 67.4924 799.682 68.8558 799.682 70.2193C799.682 72.9463 801.727 73.628 807.863 75.6732C814.68 77.0367 818.771 79.7637 818.771 85.8994C818.771 92.7168 813.317 97.4889 805.817 97.4889C800.363 97.4889 794.91 95.4437 790.819 91.3533ZM831.724 60.6749H839.904V96.1255H831.724V60.6749ZM861.72 68.1741H850.812V61.3567H880.127V68.1741H869.219V96.8072H861.72V68.1741ZM901.943 82.4907L888.308 60.6749H897.171L905.352 75.6732L914.214 60.6749H923.077L909.442 82.4907V96.1255H901.943V82.4907ZM157.482 157.482H0V0H157.482V157.482ZM54.5393 50.4488C47.7219 57.2662 44.9949 82.4907 72.9463 82.4907C56.5845 72.9463 58.6297 58.6297 65.4471 49.0854C65.4471 47.7219 60.6749 36.1323 60.6749 38.1775C60.6749 42.9497 55.9028 49.0854 54.5393 50.4488ZM77.7185 81.8089C66.8106 61.3567 89.9898 47.0401 89.9898 44.3132C89.9898 37.4958 85.2176 23.861 84.5359 25.2244C83.1724 32.0418 74.3098 40.9045 72.2645 42.9497C55.9028 61.3567 59.9932 74.9915 77.0367 81.8089H77.7185ZM80.4454 81.8089C81.8089 60.675 102.261 57.948 103.625 54.5393C106.351 47.7219 100.898 34.0871 100.216 34.7688C98.1707 40.2227 94.0802 44.9949 94.0802 44.9949C77.0367 57.2662 73.628 68.1741 80.4454 81.1272V81.8089ZM82.4906 81.8089C115.214 85.2176 113.851 47.7219 113.851 47.7219C111.805 51.8123 107.033 54.5393 107.033 54.5393C102.943 59.9932 86.5811 61.3567 82.4906 81.8089ZM67.4923 91.3533H88.6263V84.5359H66.8106V91.3533H67.4923ZM76.355 137.03C76.355 138.393 79.0819 139.075 79.7637 137.03L85.2176 94.0802H71.5828L76.355 137.03Z" fill="#23201F"/>
</svg>
