<svg width="360" height="154" viewBox="0 0 360 154" fill="none" xmlns="http://www.w3.org/2000/svg">
<path d="M226.866 0.136597C216.835 0.136597 209.239 2.87392 204.252 8.2686C199.246 13.7052 196.714 20.6037 196.714 28.7699V38.2421H185.622V53.5638H196.714V101.743H185.607V116.979H232.234V101.743H219.271V53.5638H232.234V38.2421H219.271V27.3156C219.271 16.315 224.011 14.0097 227.97 14.0097C231.492 14.0097 234.252 16.6024 236.213 21.6563C237.488 20.6627 250.489 10.5091 251.689 9.56303C246.492 3.32506 238.173 0.136597 226.866 0.136597ZM0 1.27493V46.2922H16.5971V19.8099H38.1911V100.951H20.37V117.209H83.0885V100.951H65.2674V19.8099H87.3715C87.3715 19.8099 87.3468 32.0917 87.3449 33.5422C88.704 33.5422 102.36 33.5384 103.714 33.5384V1.27493H0ZM270.039 8.19437C268.193 9.51734 263.129 13.1608 263.129 13.1608C263.129 13.1608 248.11 23.9368 247.463 24.4089V38.2839H236.974V53.6038H247.463V98.6249C247.463 111.992 253.745 118.214 267.241 118.214C273.009 118.214 279.062 116.985 285.21 114.6V100.163C282.793 100.865 280.661 101.275 278.814 101.275C275.198 101.275 272.856 100.485 271.638 98.8552C270.553 97.3838 270.039 94.9529 270.039 91.2067V53.6038H285.21V38.2839H270.039V8.19437ZM315.877 36.4204C307.006 36.4204 299.792 38.697 294.462 43.1875C289.189 47.6228 286.524 53.1336 286.524 59.5676C286.524 66.4262 289.341 72.0112 294.919 76.1686C300.648 80.4402 310.204 83.6781 323.32 85.7987C329.982 86.9085 334.36 88.0639 336.721 89.3298C339.329 90.7327 340.642 92.7676 340.642 95.3717C340.642 98.1147 339.252 100.378 336.473 102.101C333.884 103.713 330.287 104.528 325.775 104.528C320.559 104.528 316.086 103.306 312.507 100.884C309.176 98.6344 307.292 95.5735 306.835 91.8273H289.665V117.917H306.644V112.013L308.643 114.198C312.032 117.908 318.542 119.791 327.983 119.791C338.225 119.791 346.2 117.293 351.721 112.369C357.222 107.475 360.001 101.094 360.001 93.4091C360.001 88.0068 358.536 83.3222 355.661 79.4808C352.768 75.6185 348.865 72.8126 344.068 71.1375C339.081 69.4033 331.448 67.6387 321.397 65.8989C314.792 64.732 310.756 63.7307 309.081 62.8437C307.139 61.8272 306.13 60.2244 306.13 58.2028C306.13 53.2573 310.356 50.7484 318.694 50.7484C329.011 50.7484 335.312 53.659 337.52 59.3602H354.462V37.7034H337.92V41.0936L336.321 40.4254C330.02 37.7662 323.129 36.4204 315.877 36.4204ZM87.2592 38.2725V53.5943H99.6209V94.517C99.6209 102.089 101.711 107.99 105.838 112.056C109.967 116.136 115.814 118.203 123.219 118.203C130.914 118.203 138.642 115.561 146.188 110.355L149.148 108.31V117.009H180.897V101.773H171.711V38.2725H136.443V53.5943H149.148V93.5081L148.384 94.0735C142.794 98.2213 137.506 100.323 132.68 100.323C128.812 100.323 126.031 99.3349 124.413 97.3857C122.858 95.5183 122.1 92.3755 122.1 87.7822V38.2725H87.2592ZM296.727 131.305C296.613 131.305 296.441 131.421 296.384 131.833C296.27 132.242 295.28 136.108 294.976 137.22C294.957 137.368 294.976 137.456 295.09 137.513L295.68 137.722C295.832 137.781 295.908 137.661 296.004 137.513C296.556 136.519 297.679 134.585 298.611 134.176C299.83 133.763 301.962 133.763 302.894 133.763H303.713V141.09C303.713 141.676 303.713 150.642 303.618 151.403C303.599 151.841 303.237 152.195 302.647 152.195H300.991C300.877 152.195 300.781 152.252 300.781 152.425V153.103C300.781 153.307 300.839 153.367 301.01 153.367C301.429 153.367 302.647 153.282 305.636 153.282C308.815 153.282 309.747 153.367 310.033 153.367C310.28 153.367 310.337 153.253 310.337 153.076V152.459C310.337 152.313 310.28 152.195 310.147 152.195H308.453C307.749 152.195 307.463 151.609 307.463 149.381V133.763H308.282C309.328 133.763 311.974 133.822 312.793 134.29C313.611 134.876 314.697 136.755 315.115 137.574C315.191 137.749 315.249 137.838 315.363 137.808L315.953 137.602C316.048 137.572 316.105 137.513 316.067 137.34C315.839 135.933 315.249 132.301 315.191 131.773C315.134 131.421 315.077 131.305 314.906 131.305C314.735 131.305 314.601 131.419 314.373 131.595C313.935 131.916 312.812 132.329 312.26 132.356C310.908 132.417 309.69 132.531 306.473 132.531H304.874C302.019 132.531 300.781 132.417 299.202 132.356C298.383 132.329 297.793 132.183 297.203 131.595C297.031 131.419 296.917 131.305 296.727 131.305ZM243.18 132.093C241.467 132.093 240.172 132.504 239.011 133.502C237.602 134.616 236.955 135.961 236.955 137.602C236.955 139.39 237.431 140.855 238.421 141.794C239.83 143.083 241.771 143.903 242.704 144.253C245.807 145.426 247.044 146.305 247.044 149.003C247.044 151.435 244.817 152.429 243.237 152.429C241.771 152.429 240.248 151.727 239.354 150.318C238.535 149.031 238.307 147.918 238.25 146.979C238.25 146.804 238.192 146.745 238.078 146.745L237.431 146.686C237.317 146.686 237.279 146.743 237.26 146.92C237.184 147.272 236.784 152.018 236.727 152.37C236.727 152.663 236.841 152.842 237.069 152.842C237.317 152.842 237.431 152.781 237.602 152.49C237.774 152.197 237.907 151.961 238.078 151.961C238.25 151.961 238.421 152.075 238.764 152.311C239.944 153.189 241.352 153.72 243.751 153.72C247.634 153.72 249.975 150.788 249.975 147.213C249.975 145.251 249.442 144.021 248.51 143.024C247.387 141.851 245.978 141.263 244.284 140.737C243.104 140.385 241.467 139.687 240.705 138.923C240.001 138.162 239.887 137.279 239.887 136.283C239.887 135.198 240.819 133.323 243.18 133.323C244.512 133.323 245.445 133.736 246.206 134.555C247.272 135.668 247.748 136.841 248.034 137.663C248.091 137.838 248.205 137.865 248.319 137.836L248.795 137.692C248.909 137.663 248.967 137.604 248.967 137.488C248.967 137.195 248.51 133.093 248.51 132.621C248.51 132.327 248.453 132.152 248.262 132.152C248.091 132.152 247.977 132.211 247.863 132.327L247.482 132.71C247.33 132.855 247.158 132.914 246.854 132.796C246.283 132.562 245.102 132.093 243.18 132.093ZM20.4633 132.445C20.231 132.445 20.1701 132.504 20.1701 132.68V133.353C20.1701 133.561 20.231 133.618 20.4081 133.618H21.7539C22.5153 133.618 22.7494 134.088 22.7494 135.082V142.028C22.7494 145.866 22.8656 147.8 23.2748 149.092C23.8611 150.963 25.0337 152.311 26.7355 153.013C27.8491 153.485 29.549 153.72 30.9557 153.72C33.1829 153.72 35.056 153.015 36.2876 151.902C37.8694 150.495 38.5718 148.681 38.7489 146.277C38.8669 145.104 38.9221 140.006 38.9221 139.595C38.9221 139.215 38.9221 135.11 38.983 134.758C39.042 134.437 39.1581 133.618 40.2127 133.618H41.2692C41.4139 133.618 41.4443 133.529 41.4443 133.353V132.68C41.4443 132.535 41.4139 132.445 41.1493 132.445C40.917 132.445 39.9786 132.535 38.1607 132.535C36.2266 132.535 34.8808 132.445 34.5877 132.445C34.4126 132.445 34.3535 132.504 34.3535 132.68V133.412C34.3535 133.529 34.4126 133.618 34.5877 133.618H35.6404C36.2838 133.618 36.7558 134.143 36.8453 134.907C36.9329 135.579 37.167 138.16 37.167 140.503V145.778C37.167 147.918 36.5788 149.617 35.4652 150.731C34.5268 151.609 32.8859 152.136 31.5382 152.136C30.1334 152.136 28.5496 151.668 27.554 150.318C26.8516 149.383 26.6194 148.036 26.5318 146.686C26.4709 145.751 26.4424 143.669 26.4424 142.205V138.569C26.4424 136.871 26.4995 135.11 26.5318 134.758C26.5604 134.145 27.0858 133.618 27.9652 133.618H29.1968C29.3719 133.618 29.4271 133.559 29.4271 133.384V132.651C29.4271 132.503 29.3719 132.445 29.1968 132.445C28.8446 132.445 27.4379 132.535 24.9766 132.535C22.1651 132.535 20.7583 132.445 20.4633 132.445ZM58.3784 132.445C58.2623 132.445 58.2032 132.504 58.2032 132.621V133.412C58.2032 133.532 58.2623 133.586 58.3784 133.618H59.3149C60.6055 133.618 61.6011 134.966 61.6011 136.721V140.444C61.6011 145.131 61.4279 149.237 61.3974 149.764C61.2528 151.551 60.8397 152.195 60.0783 152.195H59.0846C58.9666 152.195 58.9057 152.313 58.9057 152.37V153.103C58.9057 153.307 58.9666 153.367 59.0846 153.367C59.3777 153.367 61.3689 153.282 62.1303 153.282C63.2439 153.282 65.0009 153.367 65.294 153.367C65.5301 153.367 65.5281 153.307 65.5281 153.133V152.459C65.5281 152.315 65.5301 152.195 65.294 152.195H64.5307C63.478 152.195 63.1259 151.491 63.0668 150.029C63.0097 149.119 62.7737 145.015 62.7737 140.035V136.458H62.9507C63.3029 136.869 67.9895 142.73 68.4025 143.14C68.7509 143.608 71.039 146.362 73.091 148.883C74.9051 151.051 76.4869 152.867 76.723 153.162C76.9552 153.396 77.3093 153.63 77.7186 153.63C78.0707 153.63 78.0688 153.221 78.0688 152.81V145.076C78.0688 142.087 78.3639 137.162 78.5104 135.171C78.598 134.086 78.893 133.618 79.4774 133.618H80.296C80.4121 133.618 80.473 133.5 80.473 133.323V132.651C80.473 132.563 80.414 132.445 80.1799 132.445C79.8277 132.445 79.1234 132.535 77.3664 132.535C75.3715 132.535 74.4349 132.445 74.0828 132.445C73.8505 132.445 73.8524 132.504 73.8524 132.68V133.353C73.8524 133.5 73.8505 133.618 74.0275 133.618H74.9641C75.6684 133.618 76.3118 134.029 76.5174 134.734C76.664 135.23 76.7801 138.099 76.8372 139.213C76.8981 140.676 76.8981 142.144 76.8981 144.723V147.771H76.782C76.3118 147.187 71.7414 141.499 71.3321 141.031C70.7458 140.212 65.0028 133.003 64.7096 132.71C64.5345 132.537 64.3556 132.445 64.0034 132.445C63.8283 132.445 63.5656 132.476 63.1849 132.476C62.8327 132.504 62.393 132.535 61.8962 132.535C60.6055 132.535 59.8156 132.537 59.2902 132.506C58.761 132.478 58.5269 132.445 58.3784 132.445ZM98.5206 132.445C98.4045 132.445 98.3455 132.503 98.3455 132.651V133.412C98.3455 133.563 98.4064 133.618 98.5797 133.618H100.104C100.925 133.618 101.218 133.909 101.306 134.614C101.334 134.994 101.395 140.269 101.395 140.971V143.024C101.395 144.605 101.334 150.935 101.275 151.344C101.159 152.136 100.516 152.195 99.9293 152.195H98.7586C98.5797 152.195 98.5206 152.254 98.5206 152.37V153.162C98.5206 153.307 98.5797 153.367 98.7586 153.367C99.0517 153.367 100.337 153.282 103.268 153.282C106.021 153.282 107.195 153.367 107.547 153.367C107.724 153.367 107.84 153.307 107.84 153.133V152.4C107.84 152.256 107.724 152.195 107.606 152.195H106.373C105.67 152.195 105.206 152.077 105.206 151.14C105.206 150.819 105.145 144.078 105.145 143.785V141.499C105.145 141.147 105.206 134.705 105.206 134.41C105.206 133.854 105.672 133.618 106.318 133.618H107.433C107.549 133.618 107.663 133.561 107.663 133.384V132.71C107.663 132.565 107.608 132.445 107.433 132.445C107.02 132.445 106.082 132.535 103.268 132.535C100.396 132.535 98.8728 132.445 98.5206 132.445ZM125.713 132.445C125.597 132.445 125.538 132.504 125.538 132.68V133.353C125.538 133.529 125.597 133.618 125.713 133.618H126.415C127.061 133.618 127.413 133.911 127.676 134.555C127.997 135.404 129.286 139.154 130.047 141.265C131.045 143.989 133.51 150.701 134.506 153.192C134.652 153.545 134.797 153.864 135.149 153.864C135.383 153.864 135.617 153.72 135.733 153.486C136.026 152.869 139.542 144.314 140.127 143.024C140.949 141.09 142.708 136.519 143.675 134.968C144.351 133.913 145.11 133.618 145.813 133.618H146.519C146.694 133.618 146.753 133.53 146.753 133.384V132.651C146.753 132.503 146.694 132.445 146.519 132.445C146.283 132.445 145.521 132.535 143.06 132.535C141.183 132.535 139.836 132.445 139.603 132.445C139.426 132.445 139.369 132.504 139.369 132.68V133.353C139.369 133.5 139.457 133.618 139.573 133.618H140.365C141.183 133.618 141.476 134.086 141.476 134.438C141.476 135.642 139.658 140.062 139.19 141.44C138.897 142.319 137.024 147.185 136.32 148.824V148.883H136.261C135.792 147.301 134.21 142.671 133.799 141.558C133.215 139.86 132.101 136.401 131.896 135.346C131.808 134.935 131.806 134.583 131.806 134.349C131.806 133.911 132.276 133.618 133.038 133.618H134.447C134.622 133.618 134.681 133.529 134.681 133.323V132.68C134.681 132.535 134.622 132.445 134.388 132.445C134.153 132.445 132.804 132.535 130.047 132.535C127 132.535 126.008 132.445 125.713 132.445ZM163.748 132.445C163.6 132.445 163.573 132.503 163.573 132.651V133.412C163.573 133.561 163.628 133.618 163.748 133.618H164.86C165.739 133.618 166.032 133.85 166.148 134.644C166.209 135.053 166.265 138.685 166.265 141.086V150.935C166.265 152.02 166.15 152.195 164.803 152.195H163.803C163.569 152.195 163.514 152.254 163.514 152.429V153.133C163.514 153.308 163.571 153.367 163.748 153.367C164.273 153.367 165.328 153.278 167.498 153.278C177.286 153.278 179.569 153.367 179.86 153.367C180.212 153.367 180.419 153.19 180.507 152.928L181.914 148.531C181.971 148.384 181.942 148.3 181.853 148.239L181.385 147.95C181.268 147.891 181.179 147.918 181.061 148.064C180.505 148.767 178.868 150.701 178.341 151.169C177.579 151.814 176.462 152.109 175.935 152.166C175.348 152.225 173.999 152.281 173.473 152.281C172.36 152.281 171.657 152.164 171.187 152.046C170.542 151.871 170.016 151.287 170.016 149.764C170.016 149.237 169.959 146.364 169.931 144.782L169.897 143.024C170.837 143.024 172.244 143.083 173.298 143.199C173.944 143.258 174.499 143.667 174.764 144.253C174.909 144.603 175.112 145.251 175.232 145.719C175.291 145.896 175.35 145.955 175.466 145.926L176.114 145.808C176.289 145.778 176.348 145.748 176.348 145.601C176.287 144.956 176.173 143.551 176.173 142.38C176.173 141.617 176.173 139.685 176.232 139.216C176.258 139.041 176.173 138.978 176.053 138.978L175.291 138.923C175.173 138.923 175.057 138.98 175.057 139.157C175.057 139.685 174.764 140.416 174.589 140.796C174.237 141.501 173.884 141.733 173.239 141.853C172.889 141.94 170.778 142.001 169.897 142.001L169.956 133.529L174.414 133.647C175.234 133.675 176.024 134.058 176.641 134.41C177.345 134.819 179.744 137.513 179.86 137.688C179.949 137.836 180.039 137.865 180.124 137.836L180.652 137.602C180.77 137.543 180.802 137.456 180.741 137.279C180.623 136.989 179.51 133.001 179.391 132.621C179.363 132.503 179.304 132.445 179.157 132.445C179.013 132.445 178.455 132.476 177.987 132.476C176.698 132.476 169.959 132.535 168.671 132.535H167.848C165.448 132.563 164.39 132.445 163.748 132.445ZM199.796 132.445C199.662 132.445 199.605 132.503 199.605 132.651V133.443C199.605 133.559 199.662 133.618 199.796 133.618H200.938C201.471 133.618 201.89 134.088 201.89 135.082V142.789C201.89 145.542 201.89 148.298 201.814 151.23C201.814 152.02 201.357 152.195 200.709 152.195H199.72C199.605 152.195 199.548 152.282 199.548 152.429V153.103C199.548 153.278 199.605 153.371 199.777 153.371C200.062 153.371 200.767 153.278 203.641 153.278C206.687 153.278 207.277 153.371 207.657 153.371C207.886 153.371 207.981 153.31 207.981 153.103V152.4C207.981 152.281 207.924 152.195 207.734 152.195H206.287C205.811 152.195 205.602 151.666 205.525 151.079C205.449 150.64 205.392 147.362 205.392 145.603V144.019C205.716 143.991 206.23 143.96 206.344 143.96C207.562 143.96 208.248 144.754 208.971 145.778C209.447 146.423 210.265 147.773 210.551 148.3C210.817 148.768 211.959 150.874 212.492 151.698C212.873 152.311 213.425 153.105 213.787 153.371C214.415 153.339 215.538 153.278 216.357 153.278C218.241 153.278 219.003 153.371 219.231 153.371C219.402 153.371 219.46 153.278 219.46 153.072V152.456C219.46 152.34 219.402 152.252 219.231 152.252C218.527 152.252 217.708 152.195 217.156 151.698C216.718 151.285 214.834 148.65 214.663 148.359C214.415 148.007 212.607 145.251 212.245 144.782C211.845 144.257 211.312 143.73 210.494 143.437V143.317C213.711 142.789 215.938 141.263 215.938 137.574C215.938 136.46 215.424 135.232 214.358 134.294C213.197 133.237 211.369 132.445 209.028 132.445C208.152 132.445 205.449 132.535 203.812 132.535C200.938 132.535 200.005 132.445 199.796 132.445ZM268.362 132.445C268.248 132.445 268.191 132.503 268.191 132.651V133.412C268.191 133.563 268.248 133.618 268.419 133.618H269.942C270.76 133.618 271.065 133.909 271.16 134.614C271.179 134.994 271.236 140.269 271.236 140.971V143.024C271.236 144.605 271.179 150.935 271.122 151.344C271.008 152.136 270.361 152.195 269.771 152.195H268.609C268.438 152.195 268.362 152.254 268.362 152.37V153.162C268.362 153.307 268.438 153.367 268.609 153.367C268.895 153.367 270.189 153.282 273.121 153.282C275.862 153.282 277.042 153.367 277.385 153.367C277.575 153.367 277.689 153.307 277.689 153.133V152.4C277.689 152.256 277.575 152.195 277.461 152.195H276.224C275.519 152.195 275.043 152.077 275.043 151.14C275.043 150.819 274.986 144.078 274.986 143.785V141.499C274.986 141.147 275.043 134.705 275.043 134.41C275.043 133.854 275.519 133.618 276.167 133.618H277.271C277.385 133.618 277.499 133.561 277.499 133.384V132.71C277.499 132.565 277.442 132.445 277.271 132.445C276.871 132.445 275.919 132.535 273.121 132.535C270.247 132.535 268.724 132.445 268.362 132.445ZM333.616 132.445C333.445 132.445 333.388 132.503 333.388 132.621V133.412C333.388 133.561 333.445 133.618 333.616 133.618H334.149C334.606 133.618 335.253 133.852 335.615 134.263C336.433 135.289 341.173 143.726 341.649 144.603V146.012C341.649 148.767 341.592 151.055 341.554 151.464C341.535 151.904 341.306 152.195 340.545 152.195H339.327C339.193 152.195 339.136 152.313 339.136 152.429V153.103C339.136 153.249 339.193 153.371 339.327 153.371C339.593 153.371 340.526 153.278 343.4 153.278C346.046 153.278 347.207 153.371 347.531 153.371C347.683 153.371 347.74 153.278 347.74 153.072V152.4C347.74 152.281 347.683 152.195 347.531 152.195H346.579C345.989 152.195 345.513 152.136 345.418 151.199C345.399 150.878 345.342 148.944 345.342 147.83V144.253C346.446 142.319 351.319 134.819 351.795 134.294C352.252 133.795 352.956 133.618 353.375 133.618H354.022C354.193 133.618 354.251 133.5 354.251 133.323V132.651C354.251 132.503 354.193 132.445 354.022 132.445C353.718 132.445 353.07 132.535 351.205 132.535C349.149 132.535 347.912 132.445 347.626 132.445C347.512 132.445 347.455 132.503 347.455 132.651V133.384C347.455 133.529 347.512 133.618 347.683 133.618H348.445C349.32 133.618 349.511 134.145 349.454 134.673C349.377 135.405 345.608 141.501 344.6 143.143C343.819 141.501 340.298 134.994 340.24 134.469C340.183 133.852 340.412 133.618 341.059 133.618H341.82C342.011 133.618 342.049 133.5 342.049 133.323V132.651C342.049 132.503 342.011 132.445 341.82 132.445C341.535 132.445 340.469 132.535 337.48 132.535C335.272 132.535 333.863 132.445 333.616 132.445ZM206.915 133.502C208.381 133.502 209.732 133.822 210.798 134.762C211.522 135.436 212.074 136.694 212.074 138.042C212.074 139.388 211.141 143.083 206.572 143.083C206.211 143.083 205.868 143.022 205.449 142.965L205.525 134.524C205.525 134.172 205.64 133.822 205.868 133.677C206.097 133.529 206.458 133.502 206.915 133.502Z" fill="#23201F"/>
</svg>
