<svg width="924" height="286" viewBox="0 0 924 286" fill="none" xmlns="http://www.w3.org/2000/svg">
<path d="M93.3652 0.953869C63.0732 0.953869 46.9161 2.97573 39.8453 2.97573C28.0641 2.97573 17.6299 2.63745 7.19148 2.63745C1.47154 2.63745 0.461914 2.97573 0.461914 5.33153C0.461914 9.36832 1.80679 9.70962 16.9582 9.70962C26.3788 9.70962 31.7708 12.7394 31.7708 39.3311V194.176C31.7708 199.224 31.0934 199.898 15.9472 199.898C8.54068 199.898 6.51926 200.567 6.51926 203.938C6.51926 207.303 8.87593 207.639 12.2461 207.639C23.0151 207.639 30.4216 206.294 44.5577 206.294C59.3682 206.294 73.5082 209.656 87.647 209.656C134.439 209.656 165.746 191.821 165.746 154.118C165.746 124.833 145.879 113.385 130.059 105.302C123.327 101.937 116.93 100.254 116.93 99.5836C116.93 98.5765 124.336 94.8711 130.736 90.4939C141.51 83.0899 155.984 71.3027 155.984 47.4046C155.984 23.504 137.131 0.953003 93.3639 0.953003L93.3652 0.953869ZM670.134 1.33892C668.377 1.33892 657.25 6.31647 634.414 7.78046C629.438 8.07282 627.091 7.77742 627.091 11.2914C627.091 14.5152 630.023 15.1025 635.293 15.1025C648.466 15.1025 650.224 15.1008 650.224 33.544V194.869C650.224 200.14 645.245 199.848 633.242 199.848C626.211 199.848 625.92 201.609 625.92 203.659C625.92 206.001 626.504 206.586 633.242 206.586C637.34 206.586 652.861 206.002 662.812 206.002C668.088 206.002 674.528 206.586 678.919 206.586C689.458 206.586 691.507 206.585 691.507 203.659C691.507 201.311 692.092 199.556 677.452 199.556C672.184 199.556 670.134 196.336 670.134 172.037C670.134 163.542 671.598 140.416 671.598 28.8597C671.598 20.0779 673.061 9.53247 673.061 6.01848C673.061 2.79728 671.595 1.33632 670.134 1.33632V1.33892ZM427.055 1.63085C424.418 1.63085 407.142 8.06849 386.064 8.06849C382.843 8.06849 382.257 9.24097 382.257 12.1672C382.257 14.222 383.429 15.103 395.429 15.103C403.334 15.103 405.678 17.7381 405.678 38.5233C405.678 100.304 404.798 186.968 404.798 195.458C404.798 199.849 402.165 199.848 392.21 199.848C385.183 199.848 383.721 201.312 383.721 203.659C383.721 206.293 385.478 206.586 392.21 206.586C396.309 206.586 407.143 206.003 417.103 206.003C426.472 206.003 439.935 206.586 444.326 206.586C450.766 206.586 452.232 206.586 452.232 203.659C452.232 201.312 451.061 199.848 444.326 199.848C426.175 199.848 426.763 199.85 426.763 186.093V167.647C426.763 165.01 430.861 162.958 435.545 160.029C440.52 156.808 444.617 153.883 445.789 153.883C447.546 153.883 459.85 172.332 472.145 186.385C484.441 200.437 487.077 207.758 492.351 207.758C496.45 207.758 505.232 207.466 508.745 207.466C511.38 207.466 515.185 207.758 518.699 207.758C525.138 207.758 527.188 207.172 527.188 205.123C527.188 202.781 524.848 201.311 517.823 201.311C507.869 201.311 498.499 186.967 488.54 174.964C468.047 150.368 462.78 144.807 462.78 142.171C462.78 140.122 480.931 127.242 495.574 112.892C504.648 104.11 514.6 91.523 514.6 88.8835C514.6 88.0042 513.43 87.7118 511.089 87.7118C507.578 87.7118 490.591 88.5876 486.784 88.5876C483.271 88.5876 477.711 87.7118 474.784 87.7118C470.978 87.7118 469.514 88.2966 469.514 90.6433C469.514 93.2798 470.977 93.8619 475.368 93.8619C488.248 93.8619 489.127 94.4492 489.127 99.1322C489.127 105.28 486.492 110.259 475.076 121.089C465.707 129.877 435.251 156.81 427.931 156.81C427.054 156.81 426.763 155.931 426.763 154.759C426.763 107.036 428.515 74.2454 428.515 29.7411C428.515 20.3716 429.102 8.06806 429.102 4.26429C429.102 2.50795 428.517 1.62955 427.055 1.62955V1.63085ZM83.2624 9.03307C113.896 9.03307 128.035 41.3503 128.035 58.1831C128.035 84.7748 116.927 91.1708 107.165 98.5774C107.165 98.5774 93.0239 96.5555 72.4934 96.5555C64.4099 96.5555 60.0366 97.2265 60.0366 91.8392V18.7972C60.0366 12.0646 61.0479 9.0348 83.2619 9.0348L83.2624 9.03307ZM230.884 84.7822C204.242 84.7822 176.424 109.379 176.424 150.661C176.424 199.557 212.146 211.273 236.153 211.273C259.869 211.273 284.757 192.821 284.757 191.359C284.757 190.772 283.878 189.016 282.414 189.016C280.659 189.016 270.119 196.045 250.796 196.045C228.541 196.045 197.209 185.211 197.209 144.806C197.209 138.073 198.091 136.609 202.779 136.316C236.152 134.267 265.432 127.829 273.045 126.067C280.954 124.31 285.053 123.141 285.053 121.968C285.053 119.627 280.365 112.598 275.384 106.745C264.845 94.447 246.11 84.7847 230.882 84.7847L230.884 84.7822ZM572.284 84.7822C545.644 84.7822 517.823 109.379 517.823 150.661C517.823 199.557 553.544 211.273 577.552 211.273C601.266 211.273 626.157 192.821 626.157 191.359C626.157 190.772 625.275 189.016 623.814 189.016C622.056 189.016 611.515 196.045 592.191 196.045C569.939 196.045 538.613 185.211 538.613 144.806C538.613 138.073 539.492 136.609 544.175 136.316C577.553 134.267 606.827 127.829 614.445 126.067C622.35 124.31 626.449 123.141 626.449 121.968C626.449 119.627 621.767 112.598 616.788 106.745C606.244 94.447 587.509 84.7847 572.282 84.7847L572.284 84.7822ZM741.162 84.7822C714.517 84.7822 686.701 109.379 686.701 150.661C686.701 199.557 722.422 211.273 746.43 211.273C770.147 211.273 795.035 192.821 795.035 191.359C795.035 190.772 794.154 189.016 792.692 189.016C790.935 189.016 780.398 196.045 761.07 196.045C738.82 196.045 707.491 185.211 707.491 144.806C707.491 138.073 708.37 136.609 713.053 136.316C746.432 134.267 775.712 127.829 783.324 126.067C791.228 124.31 795.328 123.141 795.328 121.968C795.328 119.627 790.646 112.598 785.667 106.745C775.129 94.447 756.387 84.7847 741.165 84.7847L741.162 84.7822ZM332.773 86.8296C328.085 86.8296 322.521 88.2931 317.838 88.2931C311.983 88.2931 306.418 87.7049 296.464 87.7049C291.483 87.7049 291.778 88.5876 291.778 92.1038C291.778 95.3254 291.776 95.0309 297.053 95.0309C313.447 95.0309 312.859 95.6165 312.859 115.525V195.751C312.859 199.85 311.983 200.142 299.979 200.142C292.949 200.142 292.657 200.725 292.657 203.657C292.657 206.586 293.241 206.584 299.979 206.584C304.078 206.584 314.034 205.12 323.988 205.12C333.36 205.12 352.975 206.584 357.073 206.584C364.685 206.584 364.979 206.878 364.979 203.657C364.979 201.017 364.685 200.142 357.073 200.142C335.409 200.142 334.533 200.139 334.533 185.794V125.475C334.533 113.18 340.97 106.153 357.949 106.153C372.591 106.153 376.107 118.158 380.206 118.158C381.962 118.158 386.644 105.276 386.644 102.347C386.644 94.7368 373.178 88.291 367.901 88.291C354.142 88.291 340.387 103.519 335.996 103.519C334.824 103.519 334.532 101.47 334.532 98.8364C334.532 97.9563 335.116 91.5152 335.116 90.0503C335.116 87.7036 333.945 86.8274 332.773 86.8274V86.8296ZM917.393 87.1211C913.294 87.1211 905.389 88.2931 900.998 88.2931C893.088 88.2931 887.819 87.7093 879.916 87.7093C874.646 87.7093 873.766 87.7071 873.766 91.516C873.766 94.4449 874.939 94.4475 884.016 94.4475C893.967 94.4475 893.964 96.2017 893.964 104.984C893.964 109.082 883.427 139.537 876.402 160.614C871.719 174.38 869.961 178.476 867.912 178.476C866.74 178.476 863.225 173.5 860.878 167.352C843.315 122.258 835.702 112.009 835.702 103.519C835.702 96.7868 837.459 95.03 844.484 95.03C850.632 95.03 851.805 94.7368 851.805 92.1029C851.805 88.8761 850.632 87.708 844.484 87.708C835.117 87.708 824.865 88.5837 816.668 88.5837C809.643 88.5837 807.596 87.9999 799.399 87.9999C794.128 87.9999 793.252 89.466 793.252 92.1029C793.252 94.7368 793.543 95.03 799.399 95.03C804.666 95.03 806.718 96.4962 814.038 114.06C830.142 152.123 853.561 206.289 853.561 209.511C853.561 218.293 828.389 252.84 817.845 266.013C807.891 278.606 794.128 280.363 794.128 282.12C794.128 283.584 797.055 285.047 802.033 285.047C808.474 285.047 810.522 282.706 819.304 281.536C825.749 280.657 829.262 280.363 832.484 273.923C841.85 254.597 855.029 230.879 873.475 186.084C896.604 129.874 909.489 94.7364 915.929 94.7364C919.443 94.7364 923.539 93.2715 923.539 90.6377C923.539 87.4134 922.076 87.1185 917.393 87.1185V87.1211ZM227.956 90.9326C241.426 90.9326 258.698 112.595 258.698 119.915C258.698 121.672 258.409 122.257 255.187 122.842C233.227 126.355 217.416 130.168 202.192 130.168C198.675 130.168 198.677 129.872 198.677 128.408C198.677 124.304 205.706 90.9318 227.955 90.9318L227.956 90.9326ZM569.35 90.9326C582.823 90.9326 600.096 112.595 600.096 119.915C600.096 121.672 599.803 122.257 596.581 122.842C574.622 126.355 558.812 130.168 543.59 130.168C540.077 130.168 540.075 129.872 540.075 128.408C540.075 124.304 547.1 90.9318 569.349 90.9318L569.35 90.9326ZM738.228 90.9326C751.696 90.9326 768.974 112.595 768.974 119.915C768.974 121.672 768.681 122.257 765.459 122.842C743.5 126.355 727.691 130.168 712.464 130.168C708.95 130.168 708.949 129.872 708.949 128.408C708.949 124.304 715.973 90.9318 738.227 90.9318L738.228 90.9326ZM72.1798 102.945C108.869 102.945 133.776 126.509 133.776 156.807C133.776 186.092 114.929 203.601 89.347 203.601C78.5729 203.601 67.8052 201.243 64.0993 197.202C61.0726 193.834 60.0599 174.986 60.0599 171.954V111.695C60.0599 104.291 62.7562 102.944 72.1824 102.944L72.1798 102.945ZM239.103 240.362C232.187 240.362 226.418 244.534 226.418 251.449C226.418 264.589 243.731 262.246 243.731 269.56C243.731 272.473 241.501 274.988 236.989 274.988C233.959 274.988 230.133 273.563 226.93 271.392L224.075 276.421C227.275 278.646 231.615 280.765 236.989 280.765C244.474 280.765 250.702 275.959 250.702 269.332C250.702 256.016 233.389 260.021 233.389 251.161C233.389 248.248 235.333 246.136 239.104 246.136C242.474 246.136 245.1 247.28 248.016 248.763L250.473 243.848C247.163 241.793 243.216 240.363 239.104 240.363L239.103 240.362ZM377.126 240.362C365.356 240.362 360.101 248.764 360.101 260.534C360.101 271.733 365.299 280.766 377.126 280.766C388.953 280.766 394.155 271.733 394.155 260.534C394.155 248.764 388.896 240.362 377.126 240.362ZM468.879 240.362C457.109 240.362 451.335 248.82 451.335 260.593C451.335 272.591 456.597 280.765 468.651 280.765C473.908 280.765 478.823 278.589 482.821 274.933L479.336 270.479C476.136 273.394 472.48 274.988 468.994 274.988C461.736 274.988 458.305 269.793 458.305 260.534C458.305 251.336 461.966 246.136 468.879 246.136C472.593 246.136 475.336 247.452 478.363 249.964L481.907 245.392C477.792 242.018 473.736 240.362 468.88 240.362H468.879ZM617.644 240.362C605.871 240.362 600.619 248.764 600.619 260.534C600.619 271.733 605.817 280.766 617.644 280.766C629.471 280.766 634.673 271.733 634.673 260.534C634.673 248.764 629.414 240.362 617.644 240.362ZM70.8696 240.933L64.2964 241.623V280.135H71.0974V253.851H71.2118L87.7249 280.135H93.7823V240.992H86.9808V266.71H86.8119L70.87 240.933H70.8696ZM158.102 240.933V280.135H181.873L182.39 274.361H164.903V263.279H179.59V257.505H164.903V246.707H181.416V240.933H158.102ZM402.903 240.933V280.135H409.7V263.279H424.103V257.505H409.7V246.707H425.756V240.933H402.903ZM508.024 240.933L500.084 241.563L486.312 280.135H492.657L495.91 270.702H511.683L514.94 280.135H521.915L508.024 240.933ZM573.378 240.933V280.135H580.176V263.279H594.578V257.505H580.176V246.707H596.236V240.933H573.378ZM680.442 240.933L673.869 241.623V280.135H680.667V253.851H680.786L697.294 280.135H703.352V240.992H696.554V266.71H696.381L680.442 240.933ZM745.964 240.933L738.021 241.563L724.249 280.135H730.594L733.851 270.702H749.619L752.876 280.135H759.851L745.965 240.933H745.964ZM25.8833 240.992V266.532C25.8833 275.333 30.7387 280.765 40.3412 280.765C49.8805 280.765 54.7394 275.334 54.7394 266.477V240.992H47.9375V266.933C47.9375 271.793 45.8849 274.987 40.3408 274.987C34.7404 274.987 32.6808 271.791 32.6808 266.875V240.992H25.8841H25.8833ZM103.468 240.992V280.135H110.266V240.992H103.468ZM116.948 240.992L130.433 280.135H137.915L151.459 240.992H144.771L137.289 262.877C137.289 262.877 136.547 265.103 134.604 271.789H134.261C132.374 265.103 131.634 262.818 131.634 262.818L124.147 240.992H116.948ZM191.387 240.992V280.135H198.185V264.476H201.442C203.9 264.476 205.329 266.766 206.471 269.108L211.898 280.134H219.384L211.898 266.02C211.443 265.105 210.756 264.074 209.499 263.33V263.22C214.64 261.276 216.872 257.278 216.872 252.595C216.872 245.795 212.584 240.992 203.954 240.992H191.388H191.387ZM258.799 240.992V280.135H265.596V240.992H258.799ZM273.421 240.992V246.821H283.767V280.135H290.565V246.761H300.45L300.966 240.992H273.421ZM305.416 240.992L317.759 263.389V280.135H324.556V263.389L336.903 240.992H329.412L323.871 252.138C323.871 252.138 323.185 253.562 321.244 257.907H321.075C319.015 253.562 318.271 252.138 318.271 252.138L313.072 240.992H305.417H305.416ZM527.423 240.992V280.135H550.564L551.08 274.361H534.224V240.992H527.423ZM557.7 240.992V280.135H564.497V240.992H557.7ZM640.536 240.992V280.135H647.337V264.476H650.595C653.05 264.476 654.481 266.766 655.623 269.108L661.05 280.134H668.537L661.051 266.02C660.596 265.105 659.909 264.074 658.653 263.33V263.22C663.793 261.276 666.025 257.278 666.025 252.595C666.025 245.795 661.737 240.992 653.107 240.992H640.536ZM711.894 240.992V280.135H718.692V240.992H711.894ZM377.116 246.135C383.86 246.135 387.116 252.02 387.116 260.534C387.116 269.048 383.806 274.987 377.116 274.987C370.376 274.987 367.062 269.045 367.062 260.474C367.062 251.961 370.376 246.135 377.116 246.135ZM617.629 246.135C624.372 246.135 627.628 252.02 627.628 260.534C627.628 269.048 624.316 274.987 617.629 274.987C610.885 274.987 607.575 269.045 607.575 260.474C607.575 251.961 610.886 246.135 617.629 246.135ZM198.184 246.821H203.785C208.414 246.821 209.901 248.992 209.901 252.65C209.901 256.364 208.014 258.762 203.899 258.762H198.184V246.821ZM647.336 246.821H652.937C657.566 246.821 659.053 248.992 659.053 252.65C659.053 256.364 657.166 258.762 653.051 258.762H647.336V246.821ZM503.656 247.849H503.77C506.455 255.961 506.913 257.217 506.913 257.217L509.941 265.847H497.54L500.568 257.218C500.568 257.218 501.027 255.962 503.656 247.849ZM741.596 247.849H741.711C744.396 255.961 744.858 257.217 744.858 257.217L747.882 265.847H735.481L738.513 257.218C738.513 257.218 738.968 255.962 741.597 247.849H741.596Z" fill="#23201F"/>
</svg>
