<svg width="198" height="79" viewBox="0 0 198 79" fill="none" xmlns="http://www.w3.org/2000/svg">
<g clip-path="url(#clip0_1013_2656)">
<mask id="mask0_1013_2656" style="mask-type:alpha" maskUnits="userSpaceOnUse" x="0" y="0" width="26" height="25">
<path d="M0.608887 0.5H25.2619V24.442H0.608887V0.5Z" fill="#23201F"/>
</mask>
<g mask="url(#mask0_1013_2656)">
<path fill-rule="evenodd" clip-rule="evenodd" d="M25.2609 1.508C23.0959 1.652 22.2659 2.156 22.0849 3.632C21.9769 4.604 21.9049 6.152 21.9049 9.465V12.453C21.9049 16.701 21.2549 19.761 19.1619 21.958C17.5019 23.686 15.0829 24.442 12.7009 24.442C10.6069 24.442 8.51389 23.938 6.92589 22.714C4.75989 21.058 3.74889 18.357 3.74889 14.144V5.144C3.74889 1.904 3.46089 1.76 0.608887 1.508V0.5H9.95789V1.508C7.10589 1.688 6.81789 1.904 6.81789 5.144V13.353C6.81789 19.149 9.12789 22.462 13.6029 22.462C18.8009 22.462 20.4249 18.142 20.4249 12.201V9.465C20.4249 6.152 20.3169 4.64 20.1719 3.525C19.9559 2.12 19.1979 1.688 16.6719 1.508V0.5H25.2619V1.508H25.2609Z" fill="#23201F"/>
</g>
<path fill-rule="evenodd" clip-rule="evenodd" d="M34.8249 23.902V22.966C36.9549 22.75 37.2069 22.462 37.2069 19.977V13.965C37.2069 11.481 36.3409 9.86 33.9229 9.86C32.4789 9.86 31.0709 10.76 29.9879 11.697V20.157C29.9879 22.606 30.2049 22.75 32.3339 22.966V23.902H24.5019V22.966C26.9559 22.714 27.1369 22.534 27.1369 20.157V12.705C27.1369 10.401 26.9199 10.293 24.9709 9.933V9.104C26.7029 8.78 28.4009 8.349 29.9879 7.628V10.508C30.7099 9.968 31.5039 9.428 32.4059 8.817C33.4159 8.168 34.3559 7.737 35.4019 7.737C38.2539 7.737 40.0589 9.717 40.0589 13.209V20.157C40.0589 22.606 40.2389 22.75 42.3319 22.966V23.902H34.8249ZM45.9039 2.768C45.9039 1.688 46.7699 0.895996 47.7439 0.895996C48.7549 0.895996 49.5489 1.688 49.5489 2.768C49.5489 3.74 48.7549 4.604 47.7089 4.604C46.7699 4.604 45.9039 3.74 45.9039 2.768ZM43.9909 23.902V22.966C46.2649 22.75 46.5179 22.534 46.5179 20.086V12.669C46.5179 10.437 46.4099 10.293 44.2439 9.933V9.069C46.0015 8.80231 47.7218 8.33111 49.3699 7.665V20.085C49.3699 22.534 49.6219 22.75 51.9319 22.966V23.902H43.9919H43.9909ZM68.7149 9.069C66.8379 9.321 66.5129 9.645 65.5389 11.805C63.715 15.9163 62.0175 20.0826 60.4489 24.298H59.4749C57.8509 19.978 56.1899 15.873 54.4939 11.697C53.6639 9.609 53.3739 9.357 51.4259 9.069V8.169H58.8249V9.069C56.8759 9.321 56.8039 9.609 57.3809 11.157C58.3199 13.677 59.7629 17.457 60.8109 20.05C62.0729 17.061 63.2289 13.785 64.0229 11.445C64.5639 9.717 64.3469 9.321 62.2899 9.069V8.169H68.7149V9.069ZM70.8429 13.497C72.8639 13.497 74.8499 13.461 76.9429 13.389C77.5929 13.389 77.8089 13.173 77.8089 12.669C77.8449 10.797 76.6189 9.069 74.6329 9.069C72.9729 9.069 71.3849 10.581 70.8429 13.497V13.497ZM80.7329 20.842C78.4589 23.686 75.9689 24.334 74.8499 24.334C70.4099 24.334 67.8109 20.734 67.8109 16.665C67.8109 14.181 68.7129 11.985 70.1939 10.365C71.6739 8.709 73.6219 7.737 75.4989 7.737C78.4949 7.737 80.9129 10.401 80.9129 13.209C80.9129 13.929 80.7329 14.217 80.0829 14.361C79.4689 14.469 74.9579 14.829 70.6629 14.973C70.6989 19.87 73.5129 21.886 76.0409 21.886C77.4839 21.886 78.8559 21.31 80.1559 20.086L80.7329 20.842V20.842ZM88.0589 11.553C89.1419 9.753 90.6929 7.737 92.4259 7.737C93.6529 7.737 94.5199 8.673 94.5199 9.537C94.5199 10.257 94.0499 10.977 93.3649 11.301C92.9319 11.481 92.6069 11.445 92.3899 11.229C91.8839 10.689 91.4519 10.473 90.8739 10.473C89.9359 10.473 88.7809 11.553 87.9869 13.569V20.157C87.9869 22.534 88.1669 22.75 90.9469 22.966V23.902H82.6449V22.966C84.8829 22.75 85.1349 22.534 85.1349 20.157V12.705C85.1349 10.329 84.9549 10.185 82.8969 9.897V9.105C84.6659 8.817 86.2539 8.385 87.9869 7.628V11.553H88.0589V11.553ZM104.661 12.417C103.976 10.293 102.711 8.853 100.943 8.853C99.5719 8.853 98.5969 9.933 98.5969 11.337C98.5969 12.957 100.041 13.785 101.665 14.469C104.373 15.585 106.213 16.881 106.213 19.365C106.213 22.642 103.145 24.334 100.258 24.334C98.4169 24.334 96.7559 23.65 96.1079 23.11C95.8539 22.606 95.5289 20.157 95.5289 18.861L96.4679 18.681C97.1179 21.058 98.7419 23.146 100.908 23.146C102.243 23.146 103.47 22.138 103.47 20.626C103.47 19.042 102.424 18.177 100.619 17.349C98.4529 16.341 96.1069 15.153 96.1069 12.381C96.1069 9.861 98.2729 7.737 101.593 7.737C103.073 7.737 104.048 8.061 104.806 8.349C105.094 9.177 105.491 11.301 105.6 12.201L104.661 12.417V12.417ZM110.182 2.768C110.182 1.688 111.049 0.895996 112.023 0.895996C113.033 0.895996 113.828 1.688 113.828 2.768C113.828 3.74 113.033 4.604 111.988 4.604C111.048 4.604 110.182 3.74 110.182 2.768ZM108.27 23.902V22.966C110.543 22.75 110.796 22.534 110.796 20.086V12.669C110.796 10.437 110.688 10.293 108.522 9.933V9.069C110.279 8.80227 111.999 8.33107 113.647 7.665V20.085C113.647 22.534 113.9 22.75 116.21 22.966V23.902H108.27ZM124.728 23.866C124.114 24.19 123.537 24.334 123.212 24.334C120.937 24.334 119.674 22.894 119.674 20.049V9.573H117.184L117.039 9.213L118.014 8.169H119.674V5.54L122.021 3.164L122.526 3.236V8.168H126.604C126.93 8.528 126.821 9.32 126.388 9.573H122.526V18.826C122.526 21.741 123.716 22.282 124.619 22.282C125.522 22.282 126.352 21.922 126.857 21.669L127.182 22.605L124.728 23.866V23.866ZM144.542 9.069C142.629 9.357 142.305 9.645 141.33 11.697C140.427 13.605 139.309 16.593 136.818 22.534C134.4 28.294 133.606 30.347 133.1 32.291C132.92 32.975 132.45 33.155 131.945 33.155C130.935 33.155 129.888 32.291 129.888 31.427C129.888 30.85 130.213 30.527 130.827 30.131C131.945 29.411 132.667 28.511 133.497 26.926C134.183 25.666 134.472 24.91 134.617 24.442C134.797 23.902 134.797 23.434 134.58 22.822C133.136 18.717 131.512 14.362 130.43 11.805C129.671 9.825 129.31 9.357 127.325 9.069V8.169H134.653V9.069C132.993 9.357 132.812 9.717 133.281 11.049L136.566 20.086C137.576 17.637 139.128 13.389 139.886 11.121C140.319 9.753 140.066 9.357 138.009 9.069V8.169H144.542V9.069V9.069ZM21.0029 52.918V51.91C23.9269 51.622 24.0709 51.442 24.0349 47.626L23.9269 32.936H23.7819L14.9749 52.666H14.2529L6.16793 33.44H6.09593L5.55493 43.701C5.40993 46.654 5.40993 48.237 5.44593 49.678C5.51793 51.406 6.38393 51.658 8.76593 51.91V52.918H0.356934V51.91C2.45093 51.658 3.17293 51.262 3.42593 49.75C3.60593 48.49 3.82293 46.906 4.11193 43.161L4.61693 35.672C4.94193 30.992 4.76093 30.848 1.47693 30.524V29.516H7.39693L15.6259 47.518L23.9639 29.516H30.0999V30.524C26.9229 30.812 26.6699 30.884 26.7789 34.593L27.1389 47.625C27.2479 51.442 27.3559 51.622 30.4969 51.91V52.918H21.0039H21.0029ZM40.4899 44.277C39.7329 44.673 37.9999 45.429 37.2429 45.789C35.8349 46.437 35.0409 47.121 35.0409 48.417C35.0409 50.29 36.4839 51.19 37.6029 51.19C38.5419 51.154 39.8049 50.542 40.4909 49.894V44.277H40.4899ZM43.1259 53.35C42.5839 53.35 41.8259 53.026 41.4289 52.666C40.9599 52.162 40.7439 51.658 40.5629 51.046C39.1189 52.018 37.3869 53.35 36.3029 53.35C33.7409 53.35 31.9729 51.226 31.9729 48.957C31.9729 47.193 32.9109 46.077 34.8959 45.393C37.0619 44.673 39.6959 43.701 40.4909 43.053V42.405C40.4909 39.813 39.2639 38.337 37.4589 38.337C36.7369 38.337 36.1959 38.625 35.8349 39.057C35.3649 39.525 35.0409 40.317 34.7519 41.433C34.6079 42.009 34.2109 42.261 33.7049 42.261C33.0549 42.261 32.1169 41.541 32.1169 40.713C32.1169 40.173 32.5859 39.777 33.2719 39.273C34.2819 38.553 36.6289 37.149 38.6859 36.753C39.7689 36.753 40.8519 37.077 41.6459 37.725C42.9089 38.769 43.2699 40.245 43.2699 42.117V48.814C43.2699 50.434 43.9199 50.974 44.5329 50.974C44.9669 50.974 45.4719 50.794 45.8329 50.578L46.1929 51.514L43.1259 53.35V53.35ZM56.4799 41.433C55.7939 39.309 54.5299 37.869 52.7619 37.869C51.3899 37.869 50.4159 38.949 50.4159 40.353C50.4159 41.973 51.8589 42.801 53.4829 43.485C56.1909 44.601 58.0309 45.897 58.0309 48.381C58.0309 51.658 54.9639 53.35 52.0759 53.35C50.2359 53.35 48.5749 52.666 47.9259 52.126C47.6719 51.622 47.3469 49.173 47.3469 47.877L48.2859 47.697C48.9359 50.074 50.5599 52.162 52.7259 52.162C54.0609 52.162 55.2889 51.154 55.2889 49.642C55.2889 48.058 54.2419 47.193 52.4369 46.365C50.2709 45.357 47.9249 44.169 47.9249 41.397C47.9249 38.877 50.0909 36.753 53.4109 36.753C54.8909 36.753 55.8659 37.077 56.6239 37.365C56.9129 38.193 57.3099 40.317 57.4179 41.217L56.4799 41.433V41.433ZM69.1839 41.433C68.4979 39.309 67.2339 37.869 65.4659 37.869C64.0939 37.869 63.1199 38.949 63.1199 40.353C63.1199 41.973 64.5629 42.801 66.1869 43.485C68.8949 44.601 70.7349 45.897 70.7349 48.381C70.7349 51.658 67.6679 53.35 64.7799 53.35C62.9399 53.35 61.2789 52.666 60.6299 52.126C60.3759 51.622 60.0509 49.173 60.0509 47.877L60.9899 47.697C61.6399 50.074 63.2639 52.162 65.4299 52.162C66.7649 52.162 67.9919 51.154 67.9919 49.642C67.9919 48.058 66.9459 47.193 65.1409 46.365C62.9749 45.357 60.6289 44.169 60.6289 41.397C60.6289 38.877 62.7949 36.753 66.1149 36.753C67.5949 36.753 68.5699 37.077 69.3279 37.365C69.6169 38.193 70.0139 40.317 70.1219 41.217L69.1839 41.433V41.433ZM81.1659 44.277C80.4079 44.673 78.6759 45.429 77.9169 45.789C76.5089 46.437 75.7149 47.121 75.7149 48.417C75.7149 50.29 77.1589 51.19 78.2779 51.19C79.2169 51.154 80.4799 50.542 81.1659 49.894V44.277V44.277ZM83.7999 53.35C83.2589 53.35 82.5009 53.026 82.1039 52.666C81.6339 52.162 81.4179 51.658 81.2379 51.046C79.7939 52.018 78.0619 53.35 76.9779 53.35C74.4159 53.35 72.6479 51.226 72.6479 48.957C72.6479 47.193 73.5859 46.077 75.5709 45.393C77.7369 44.673 80.3709 43.701 81.1659 43.053V42.405C81.1659 39.813 79.9389 38.337 78.1339 38.337C77.4119 38.337 76.8699 38.625 76.5089 39.057C76.0399 39.525 75.7149 40.317 75.4269 41.433C75.2819 42.009 74.8849 42.261 74.3799 42.261C73.7299 42.261 72.7919 41.541 72.7919 40.713C72.7919 40.173 73.2609 39.777 73.9469 39.273C74.9569 38.553 77.3029 37.149 79.3609 36.753C80.4439 36.753 81.5269 37.077 82.3209 37.725C83.5839 38.769 83.9449 40.245 83.9449 42.117V48.814C83.9449 50.434 84.5949 50.974 85.2079 50.974C85.6409 50.974 86.1469 50.794 86.5079 50.578L86.8679 51.514L83.7999 53.35ZM100.728 49.678C99.1399 51.766 96.7209 53.35 94.5919 53.35C90.0439 53.35 87.3719 49.678 87.3719 45.825C87.3719 43.053 88.5639 40.641 90.9819 38.769C92.8589 37.329 95.0249 36.753 96.4319 36.753C97.8759 36.753 99.0669 37.221 99.6449 37.689C100.114 38.085 100.222 38.409 100.222 38.805C100.222 39.561 99.4279 40.353 99.0319 40.353C98.8509 40.353 98.6699 40.245 98.3449 39.957C97.2619 38.949 95.9989 38.481 94.7349 38.481C92.3539 38.481 90.2599 40.461 90.2599 44.241C90.2599 49.246 93.6899 50.901 95.7099 50.901C97.2619 50.901 98.4539 50.47 100.114 48.921L100.728 49.678V49.678ZM111.013 52.918V51.982C113.107 51.766 113.395 51.55 113.395 49.209V43.233C113.395 40.281 112.276 38.805 109.858 38.805C108.486 38.805 107.115 39.489 106.104 40.641V49.21C106.104 51.514 106.284 51.766 108.414 51.982V52.918H100.762V51.982C102.928 51.802 103.253 51.586 103.253 49.209V32.037C103.253 29.769 103.181 29.589 100.798 29.373V28.545C102.531 28.293 104.696 27.717 106.104 27.285V39.38C107.368 38.083 109.316 36.751 111.266 36.751C114.189 36.751 116.246 38.588 116.246 42.908V49.208C116.246 51.585 116.499 51.801 118.629 51.981V52.917H111.013V52.918ZM136.458 52.054C134.798 52.306 132.958 52.81 131.152 53.35L130.935 53.134V50.578C130.105 51.19 129.275 51.838 128.265 52.45C127.218 53.062 126.46 53.35 125.485 53.35C123.067 53.35 121.01 51.874 121.01 47.986V40.929C121.01 38.949 120.866 38.804 118.808 38.409V37.581C120.54 37.469 122.263 37.2522 123.969 36.932C123.861 38.048 123.861 39.741 123.861 42.189V47.014C123.861 50.218 125.414 51.082 127.038 51.082C128.337 51.082 129.708 50.542 130.935 49.354V40.965C130.935 38.913 130.719 38.769 128.12 38.408V37.58C129.997 37.472 131.874 37.328 133.787 36.932V48.958C133.787 50.758 134.076 51.01 135.447 51.082L136.457 51.154V52.054H136.458ZM147.212 41.433C146.526 39.309 145.262 37.869 143.494 37.869C142.123 37.869 141.148 38.949 141.148 40.353C141.148 41.973 142.592 42.801 144.216 43.485C146.923 44.601 148.764 45.897 148.764 48.381C148.764 51.658 145.696 53.35 142.808 53.35C140.968 53.35 139.308 52.666 138.658 52.126C138.405 51.622 138.08 49.173 138.08 47.877L139.018 47.697C139.668 50.074 141.292 52.162 143.458 52.162C144.794 52.162 146.021 51.154 146.021 49.642C146.021 48.058 144.974 47.193 143.17 46.365C141.004 45.357 138.658 44.169 138.658 41.397C138.658 38.877 140.823 36.753 144.144 36.753C145.624 36.753 146.598 37.077 147.356 37.365C147.646 38.193 148.042 40.317 148.15 41.217L147.212 41.433V41.433ZM153.817 42.513C155.838 42.513 157.823 42.477 159.917 42.405C160.567 42.405 160.783 42.189 160.783 41.685C160.819 39.813 159.593 38.085 157.607 38.085C155.947 38.085 154.358 39.597 153.817 42.513V42.513ZM163.707 49.858C161.433 52.702 158.943 53.35 157.823 53.35C153.384 53.35 150.785 49.75 150.785 45.681C150.785 43.197 151.688 41.001 153.167 39.381C154.647 37.725 156.597 36.753 158.473 36.753C161.469 36.753 163.888 39.417 163.888 42.225C163.888 42.945 163.707 43.233 163.058 43.377C162.443 43.485 157.932 43.845 153.637 43.989C153.673 48.886 156.487 50.902 159.015 50.902C160.458 50.902 161.83 50.326 163.129 49.102L163.707 49.858V49.858ZM172.368 52.882C171.754 53.206 171.177 53.35 170.852 53.35C168.578 53.35 167.315 51.91 167.315 49.066V38.589H164.824L164.679 38.229L165.654 37.185H167.314V34.557L169.661 32.18L170.166 32.252V37.185H174.245C174.57 37.545 174.461 38.337 174.029 38.589H170.166V47.842C170.166 50.758 171.356 51.298 172.26 51.298C173.162 51.298 173.992 50.938 174.497 50.686L174.822 51.622L172.368 52.882V52.882ZM182.726 52.882C182.112 53.206 181.536 53.35 181.21 53.35C178.936 53.35 177.673 51.91 177.673 49.066V38.589H175.182L175.038 38.229L176.012 37.185H177.672V34.557L180.019 32.18L180.524 32.252V37.185H184.603C184.928 37.545 184.819 38.337 184.387 38.589H180.524V47.842C180.524 50.758 181.715 51.298 182.618 51.298C183.52 51.298 184.35 50.938 184.855 50.686L185.18 51.622L182.726 52.882V52.882Z" fill="#23201F"/>
<mask id="mask1_1013_2656" style="mask-type:alpha" maskUnits="userSpaceOnUse" x="186" y="36" width="12" height="18">
<path d="M186.37 36.753H197.054V53.35H186.371L186.37 36.753Z" fill="#23201F"/>
</mask>
<g mask="url(#mask1_1013_2656)">
<path fill-rule="evenodd" clip-rule="evenodd" d="M195.503 41.433C194.817 39.309 193.553 37.869 191.785 37.869C190.414 37.869 189.439 38.949 189.439 40.353C189.439 41.973 190.883 42.801 192.507 43.485C195.214 44.601 197.055 45.897 197.055 48.381C197.055 51.658 193.987 53.35 191.099 53.35C189.259 53.35 187.598 52.666 186.949 52.126C186.696 51.622 186.37 49.173 186.37 47.877L187.308 47.697C187.958 50.074 189.582 52.162 191.748 52.162C193.084 52.162 194.311 51.154 194.311 49.642C194.311 48.058 193.264 47.193 191.46 46.365C189.295 45.357 186.949 44.169 186.949 41.397C186.949 38.877 189.114 36.753 192.435 36.753C193.915 36.753 194.889 37.077 195.647 37.365C195.936 38.193 196.333 40.317 196.441 41.217L195.503 41.433Z" fill="#23201F"/>
</g>
<path fill-rule="evenodd" clip-rule="evenodd" d="M153.955 19.33C155.255 18.778 156.578 16.234 156.578 13.162C156.578 11.218 155.736 10.282 154.629 10.282C154.268 10.282 153.979 10.378 153.715 10.497C152.776 10.906 151.165 12.874 151.165 16.57C151.165 18.346 151.91 19.474 153.185 19.474C153.474 19.474 153.715 19.426 153.955 19.33M149.143 16.69C149.143 13.57 150.803 11.194 152.8 10.138C153.667 9.68199 154.653 9.37 155.4 9.37C157.396 9.37 158.6 10.738 158.6 13.114C158.6 15.178 157.71 17.53 156.025 18.922C154.99 19.786 153.667 20.434 152.319 20.434C150.033 20.434 149.143 18.634 149.143 16.69" fill="#23201F"/>
<path fill-rule="evenodd" clip-rule="evenodd" d="M161.606 9.75401C161.967 7.93001 162.544 6.17701 163.626 4.97701C164.734 3.75301 166.106 3.05701 167.068 3.05701C167.91 3.05701 168.536 3.65701 168.512 4.08901C168.512 4.44901 168.175 4.88101 167.91 5.07301C167.718 5.21701 167.477 5.24101 167.309 5.04901C166.803 4.52101 166.299 4.20901 165.793 4.20901C164.903 4.20901 164.181 5.31301 163.459 9.75401H166.178L165.673 10.498L163.267 10.738C162.833 13.378 162.569 14.842 162.039 17.506C161.197 21.635 160.307 23.435 158.983 24.803C157.924 25.931 156.914 26.315 156.264 26.315C155.566 26.315 154.748 25.835 154.772 25.283C154.772 24.971 155.061 24.563 155.422 24.275C155.614 24.107 155.735 24.131 155.879 24.275C156.264 24.635 156.962 24.875 157.395 24.875C157.805 24.875 158.189 24.683 158.43 24.395C158.743 24.035 159.32 23.027 160.114 18.37C160.692 15.058 161.004 13.042 161.414 10.69H159.416L159.344 10.426L160.066 9.75401H161.606V9.75401Z" fill="#23201F"/>
<path fill-rule="evenodd" clip-rule="evenodd" d="M9.013 62.91H8.954C8.024 65.404 7.094 67.927 6.221 70.305H11.571L9.013 62.91ZM11.862 78.425V77.613C13.693 77.381 13.955 77.149 13.577 76.018C13.199 74.887 12.617 73.321 11.978 71.552H5.785C5.32 72.857 4.885 74.075 4.506 75.293C3.866 77.12 4.128 77.41 6.309 77.613V78.425H0V77.613C1.831 77.353 2.238 77.178 3.256 74.626L9.274 59.401L10.175 59.141C11.978 64.128 13.925 69.638 15.787 74.684C16.717 77.178 17.095 77.439 18.985 77.613V78.425H11.862V78.425ZM35.876 78.425V77.671C37.591 77.497 37.911 77.381 37.911 75.321V70.48C37.911 68.42 37.184 67.116 35.353 67.116C34.306 67.116 33.202 67.696 32.096 68.624C32.155 68.972 32.184 69.291 32.184 69.842V75.497C32.184 77.324 32.445 77.497 34.044 77.672V78.426H27.824V77.672C29.626 77.498 29.887 77.352 29.887 75.439V70.45C29.887 68.304 29.131 67.115 27.358 67.115C26.195 67.115 25.061 67.898 24.189 68.623V75.438C24.189 77.323 24.422 77.497 25.846 77.671V78.425H19.712V77.671C21.631 77.497 21.892 77.323 21.892 75.438V69.435C21.892 67.579 21.805 67.435 20.119 67.173V66.506C21.398 66.274 22.881 65.896 24.159 65.316V67.666C24.77 67.26 25.41 66.738 26.282 66.186C27.038 65.723 27.736 65.404 28.666 65.404C30.061 65.404 31.312 66.274 31.893 67.782C32.6677 67.1978 33.4732 66.6557 34.306 66.158C34.916 65.752 35.672 65.404 36.486 65.404C38.754 65.404 40.179 66.999 40.179 69.841V75.438C40.179 77.381 40.411 77.497 42.069 77.671V78.425H35.876V78.425ZM51.227 78.425V77.671C52.913 77.497 53.146 77.323 53.146 75.438V70.624C53.146 68.246 52.245 67.057 50.296 67.057C49.192 67.057 48.087 67.607 47.273 68.537V75.437C47.273 77.294 47.418 77.497 49.133 77.671V78.425H42.97V77.671C44.715 77.526 44.976 77.351 44.976 75.438V61.605C44.976 59.778 44.918 59.633 42.999 59.459V58.792C44.395 58.589 46.139 58.125 47.273 57.777V67.521C48.291 66.477 49.861 65.404 51.431 65.404C53.785 65.404 55.443 66.884 55.443 70.363V75.438C55.443 77.352 55.646 77.526 57.362 77.671V78.425H51.227V78.425ZM60.763 70.044C62.391 70.044 63.99 70.015 65.677 69.957C66.2 69.957 66.374 69.784 66.374 69.377C66.403 67.869 65.415 66.477 63.816 66.477C62.479 66.477 61.199 67.695 60.763 70.044V70.044ZM68.729 75.96C66.897 78.251 64.891 78.773 63.989 78.773C60.414 78.773 58.321 75.873 58.321 72.596C58.321 70.596 59.048 68.826 60.24 67.521C61.432 66.187 63.002 65.404 64.513 65.404C66.926 65.404 68.875 67.551 68.875 69.812C68.875 70.392 68.729 70.624 68.206 70.74C67.711 70.827 64.078 71.117 60.618 71.233C60.647 75.177 62.915 76.801 64.95 76.801C66.112 76.801 67.217 76.337 68.264 75.351L68.729 75.96V75.96ZM74.631 68.478C75.504 67.028 76.754 65.405 78.149 65.405C79.138 65.405 79.835 66.158 79.835 66.855C79.835 67.435 79.458 68.015 78.905 68.275C78.556 68.42 78.295 68.391 78.12 68.218C77.713 67.782 77.364 67.608 76.899 67.608C76.143 67.608 75.213 68.478 74.573 70.102V75.409C74.573 77.323 74.719 77.497 76.957 77.671V78.425H70.27V77.671C72.073 77.497 72.276 77.323 72.276 75.409V69.406C72.276 67.492 72.131 67.376 70.474 67.144V66.506C71.898 66.274 73.178 65.926 74.574 65.317V68.478H74.631V68.478ZM87.86 69.174C87.307 67.463 86.29 66.304 84.865 66.304C83.76 66.304 82.975 67.173 82.975 68.304C82.975 69.609 84.138 70.276 85.446 70.827C87.627 71.726 89.11 72.77 89.11 74.771C89.11 77.41 86.638 78.773 84.313 78.773C82.83 78.773 81.493 78.222 80.969 77.787C80.766 77.381 80.504 75.409 80.504 74.365L81.26 74.22C81.783 76.134 83.092 77.816 84.836 77.816C85.912 77.816 86.9 77.004 86.9 75.786C86.9 74.51 86.057 73.814 84.603 73.146C82.859 72.335 80.969 71.378 80.969 69.145C80.969 67.115 82.714 65.405 85.389 65.405C86.58 65.405 87.365 65.665 87.976 65.897C88.208 66.564 88.528 68.275 88.616 69L87.86 69.174V69.174Z" fill="#23201F"/>
<mask id="mask2_1013_2656" style="mask-type:alpha" maskUnits="userSpaceOnUse" x="89" y="61" width="9" height="18">
<path d="M89.75 61.721H97.92V78.773H89.749L89.75 61.721Z" fill="#23201F"/>
</mask>
<g mask="url(#mask2_1013_2656)">
<path fill-rule="evenodd" clip-rule="evenodd" d="M95.942 78.396C95.448 78.656 94.983 78.773 94.722 78.773C92.89 78.773 91.872 77.613 91.872 75.322V66.884H89.867L89.751 66.594L90.536 65.752H91.873V63.636L93.762 61.721L94.169 61.78V65.752H97.454C97.716 66.042 97.629 66.68 97.28 66.884H94.169V74.336C94.169 76.685 95.129 77.12 95.855 77.12C96.582 77.12 97.251 76.83 97.658 76.627L97.919 77.381L95.942 78.396V78.396Z" fill="#23201F"/>
</g>
</g>
<defs>
<clipPath id="clip0_1013_2656">
<rect width="198" height="79" fill="white"/>
</clipPath>
</defs>
</svg>
