<svg width="2280" height="1431" viewBox="0 0 2280 1431" fill="none" xmlns="http://www.w3.org/2000/svg">
<path fill-rule="evenodd" clip-rule="evenodd" d="M184.894 1069.06C229.263 1069.06 260.365 1057.33 280.766 1038.49C309.338 1013.99 320.544 981.876 323.605 940.049C325.136 920.166 326.16 830.921 326.16 823.801C326.16 816.654 326.16 744.231 327.172 739.134C328.702 733.012 330.233 718.733 349.104 718.733H370.011C372.553 718.733 373.072 716.696 373.072 713.635V702.417C373.072 700.886 372.553 698.85 367.962 698.85C363.371 698.85 347.055 700.38 311.868 700.38C277.705 700.38 254.243 698.85 249.146 698.85C246.098 698.85 245.579 699.875 245.579 702.417V714.66C245.579 717.215 246.098 718.733 249.146 718.733H271.583C284.839 718.733 292.997 727.915 294.527 741.17C296.057 753.92 297.082 783.491 297.082 822.244V931.372C297.082 969.114 290.455 999.722 270.572 1021.12C252.725 1039.49 223.141 1049.16 194.076 1049.16C164.492 1049.16 131.86 1039.99 112.989 1012.46C101.265 995.105 97.1791 971.137 96.6733 947.688C96.1674 931.372 94.1312 866.601 94.1312 839.598V805.928C94.1312 779.911 94.637 744.218 95.1428 739.627C96.1674 728.408 104.831 718.72 119.63 718.72H145.128C148.695 718.72 149.201 717.695 149.201 715.153V701.898C149.201 699.849 148.682 698.837 144.61 698.837C139.007 698.837 114.52 700.367 74.7414 700.367C34.9761 700.367 9.98334 698.837 4.88622 698.837C0.800744 698.837 0.294922 699.862 0.294922 702.909V714.128C0.294922 717.695 0.80075 718.72 3.86161 718.72H27.8297C43.6269 718.72 47.2066 726.878 47.2066 744.724V866.082C47.2066 932.876 49.2428 967.052 55.3516 990.008C63.5096 1022.13 81.3559 1044.57 116.037 1058.36C132.885 1065.49 158.383 1069.06 184.894 1069.06Z" fill="#23201F"/>
<path fill-rule="evenodd" clip-rule="evenodd" d="M592.702 893.241C592.702 870.544 591.6 835.642 594.362 810.156C595.465 802.401 598.24 798.51 612.092 798.51H617.63C619.848 798.51 620.95 796.862 620.95 794.632V783.011C620.95 779.69 619.848 778.575 617.072 778.575C613.194 778.575 593.805 780.248 582.171 780.248C564.441 780.248 540.616 778.575 536.738 778.575C533.975 778.575 532.86 779.69 532.86 781.338V794.632C532.86 797.42 533.962 798.51 536.738 798.51H546.167C555.583 798.51 563.896 801.856 566.659 808.496C569.434 815.163 571.095 847.276 571.095 860.583C572.197 878.313 572.755 895.485 572.755 927.079V963.628H570.537C563.883 956.429 512.367 891.607 502.394 879.986C490.76 866.134 427.039 785.773 425.379 783.568C423.161 780.248 419.841 779.133 412.085 779.133C405.432 779.133 393.811 780.248 384.939 780.248C378.844 780.248 369.985 779.691 362.774 779.133C355.576 779.133 349.48 778.575 348.378 778.575C346.16 778.575 345.057 780.248 345.057 781.895V795.189C345.057 797.42 346.16 798.51 348.378 798.51H353.358C368.87 798.51 382.722 807.939 382.722 827.899V886.055C382.722 948.674 381.619 988.011 381.062 994.651C379.388 1007.39 370.53 1011.27 364.992 1011.27H352.243C350.583 1011.27 350.025 1011.82 350.025 1012.94V1027.35C350.025 1030.11 350.583 1031.23 351.685 1031.23C356.121 1031.23 381.049 1029.55 388.804 1029.55C404.874 1029.55 427.039 1031.23 430.917 1031.23C433.693 1031.23 433.693 1030.11 433.693 1027.88V1014.61C433.693 1012.38 433.693 1011.27 430.917 1011.27H419.283C413.745 1011.27 407.65 1005.18 405.989 992.447C404.887 987.453 402.656 932.059 402.656 898.792V822.893H403.759C412.63 832.88 457.505 892.709 470.799 908.208C476.895 915.432 500.721 943.667 526.206 974.146C548.916 1001.3 567.748 1024 571.639 1027.88C573.844 1029.55 579.395 1033.43 584.376 1033.43C591.029 1033.43 592.689 1027.88 592.689 1022.91V893.241H592.702ZM713.386 887.716C713.386 883.838 713.931 817.899 713.931 812.348C714.475 800.727 719.469 798.497 734.436 798.497H743.865C746.627 798.497 747.185 796.85 747.185 794.619V781.325C747.185 779.678 746.07 778.562 743.865 778.562C739.429 778.562 711.168 780.235 695.098 780.235C669.068 780.793 634.711 778.562 631.391 778.562C629.173 778.562 628.071 779.678 628.071 781.882V794.619C628.071 796.85 628.615 798.497 631.391 798.497H641.365C664.632 798.497 669.626 804.048 669.626 810.144C669.626 817.899 670.728 873.293 670.728 882.165V906.535C670.728 925.38 670.184 995.754 669.626 1000.75C668.51 1010.71 659.652 1011.27 645.8 1011.27H633.622C631.404 1011.27 630.288 1012.94 630.288 1014.61V1026.78C630.288 1029.57 631.404 1031.24 633.622 1031.24C636.942 1031.24 669.081 1029.57 687.913 1029.57C712.841 1029.57 741.66 1031.24 746.083 1031.24C748.845 1031.24 749.403 1029.57 749.403 1027.36V1014.04C749.403 1012.39 748.845 1011.28 746.083 1011.28H737.769C721.699 1011.28 715.059 1003.52 713.944 990.786C713.399 982.473 713.399 918.765 713.399 915.445V887.716H713.386ZM1266.95 903.215C1266.39 937.001 1266.95 969.711 1266.39 996.869C1266.39 1009.05 1259.75 1011.25 1246.46 1011.25H1239.79C1237.58 1011.25 1236.47 1012.37 1236.47 1014.02V1026.75C1236.47 1029.54 1237.58 1031.21 1239.79 1031.21C1243.69 1031.21 1271.94 1029.54 1285.79 1029.54C1304.05 1029.54 1334 1031.21 1337.88 1031.21C1341.2 1031.21 1342.32 1030.1 1342.32 1027.34V1014.02C1342.32 1012.37 1341.2 1011.25 1338.97 1011.25H1324.59C1313.5 1011.25 1310.18 1005.17 1309.06 997.401V924.277C1312.94 923.188 1317.93 923.188 1323.47 923.188C1346.75 923.188 1355.06 935.367 1375 969.724C1379.99 978.037 1404.36 1022.93 1414.89 1030.67C1426.7 1029.96 1438.53 1029.59 1450.35 1029.55C1455.88 1029.55 1462.53 1030.11 1467.53 1030.11C1473.05 1030.67 1477.49 1031.23 1478.6 1031.23C1480.83 1031.23 1481.92 1029.55 1481.92 1027.35V1016.26C1481.92 1012.94 1481.39 1011.27 1479.16 1011.27C1469.17 1011.27 1461.99 1010.71 1454.23 1005.18C1443.7 997.401 1430.95 980.787 1423.2 969.724C1400.47 937.571 1389.41 920.4 1376.66 917.637V916.522C1420.43 901.023 1442.01 878.857 1442.01 840.622C1442.01 827.886 1434.82 811.791 1422.64 800.17C1408.79 787.991 1383.86 778.562 1350.62 778.562C1343.39 778.562 1295.22 780.235 1288.56 780.235C1278.57 780.235 1244.23 778.562 1241.46 778.562C1239.23 778.562 1238.14 779.678 1238.14 781.325V794.619C1238.14 796.85 1238.7 798.497 1240.35 798.497H1245.9C1261.4 798.497 1266.39 804.605 1266.95 815.669V903.215ZM1309.05 808.47C1309.05 798.484 1317.36 796.292 1325.66 796.292C1347.83 796.292 1363.35 801.285 1378.31 810.701C1388.29 817.342 1396.59 832.283 1396.59 848.923C1396.59 863.332 1387.17 906.522 1325.66 906.522C1320.11 906.554 1314.55 906.19 1309.05 905.432V808.47ZM1569.23 1036.18C1619.65 1036.18 1646.25 1000.75 1646.25 959.166C1646.25 931.476 1639.58 917.624 1628.52 905.99C1614.67 891.581 1594.18 885.472 1568.69 876.069C1558.16 872.165 1538.21 863.864 1529.91 853.346C1523.8 846.122 1521.04 834.501 1521.04 826.187C1521.04 816.2 1529.91 792.401 1560.38 792.401C1576.43 792.401 1588.62 797.952 1596.93 807.342C1608.55 820.636 1612.98 840.039 1616.33 846.679C1616.86 848.352 1617.97 849.468 1619.65 848.91L1629.61 846.679C1631.28 846.122 1631.84 845.032 1631.84 843.359C1631.28 835.603 1626.29 799.586 1626.29 781.299C1626.29 778.536 1625.76 776.331 1621.3 776.331C1616.86 776.331 1615.21 776.331 1614.1 777.978L1611.89 781.856C1610.78 784.645 1608.01 784.087 1602.46 780.767C1595.8 777.421 1584.18 773.543 1563.13 773.543C1543.19 773.543 1525.46 778.536 1511.04 790.157C1498.86 800.689 1487.23 817.874 1487.23 836.719C1487.23 863.851 1493.87 881.581 1506.6 893.76C1523.22 908.727 1549.82 918.713 1560.92 922.591C1590.28 933.668 1611.89 947.519 1611.89 979.101C1611.89 1002.91 1585.29 1016.76 1567.56 1016.76C1547.07 1016.76 1528.78 1005.68 1520.47 989.048C1510.48 970.787 1510.48 959.127 1510.48 951.384C1510.48 949.179 1508.28 948.064 1506.05 947.506L1496.06 946.391C1493.85 946.391 1492.74 948.064 1492.18 950.269C1491.65 959.14 1487.75 1003.47 1486.1 1018.97C1485.54 1021.76 1487.21 1023.96 1490.53 1025.08C1494.97 1026.19 1497.73 1025.08 1498.85 1022.32L1500.49 1017.88C1501.61 1013.44 1504.93 1013.98 1508.81 1016.76C1521.58 1026.75 1540.96 1036.18 1569.23 1036.18ZM1740.09 887.716C1740.09 883.838 1740.64 817.899 1740.64 812.348C1741.17 800.727 1746.17 798.497 1761.14 798.497H1770.56C1773.33 798.497 1773.88 796.85 1773.88 794.619V781.325C1773.88 779.678 1772.77 778.562 1770.56 778.562C1766.13 778.562 1737.87 780.235 1721.8 780.235C1695.75 780.793 1661.41 778.562 1658.09 778.562C1655.86 778.562 1654.74 779.678 1654.74 781.882V794.619C1654.74 796.85 1655.3 798.497 1658.09 798.497H1668.05C1691.33 798.497 1696.33 804.048 1696.33 810.144C1696.33 817.899 1697.44 873.293 1697.44 882.165V906.535C1697.44 925.38 1696.88 995.754 1696.33 1000.75C1695.21 1010.71 1686.34 1011.27 1672.49 1011.27H1660.31C1658.1 1011.27 1656.99 1012.94 1656.99 1014.61V1026.78C1656.99 1029.57 1658.1 1031.24 1660.31 1031.24C1663.65 1031.24 1695.77 1029.57 1714.63 1029.57C1739.55 1029.57 1768.36 1031.24 1772.78 1031.24C1775.57 1031.24 1776.1 1029.57 1776.1 1027.36V1014.04C1776.1 1012.39 1775.57 1011.28 1772.78 1011.28H1764.47C1748.41 1011.28 1741.77 1003.52 1740.66 990.786C1740.1 982.473 1740.1 918.765 1740.1 915.445V887.716H1740.09ZM280.118 1207.12C330.959 1207.12 361.464 1137.36 361.464 1098.77C361.464 1074.93 347.431 1057.76 323.943 1057.76C277.303 1057.76 243.997 1117.72 243.997 1161.9C243.997 1188.55 260.832 1207.12 280.118 1207.12ZM274.865 1190.3C266.448 1190.3 258.731 1183.63 258.731 1172.41C258.731 1155.93 267.148 1134.54 279.067 1115.62C296.602 1087.2 315.188 1073.87 329.909 1073.87C341.478 1073.87 347.794 1082.66 347.444 1093.53C347.444 1116.66 311.323 1190.3 274.865 1190.3ZM846.819 1216.01C846.819 1212.13 847.363 1146.22 847.363 1140.67C847.921 1129.04 852.902 1126.81 867.869 1126.81H877.285C880.06 1126.81 880.605 1125.14 880.605 1122.94V1109.64C880.605 1107.97 879.503 1106.88 877.285 1106.88C872.862 1106.88 844.601 1108.53 828.531 1108.53C802.488 1109.08 768.144 1106.88 764.811 1106.88C762.606 1106.88 761.491 1107.97 761.491 1110.2V1122.94C761.491 1125.14 762.048 1126.81 764.811 1126.81H774.785C798.052 1126.81 803.046 1132.36 803.046 1138.43C803.046 1146.22 804.148 1201.61 804.148 1210.48V1234.85C804.148 1253.7 803.591 1324.04 803.046 1329.04C801.93 1339.02 793.059 1339.57 779.22 1339.57H767.042C764.824 1339.57 763.721 1341.24 763.721 1342.89V1355.07C763.721 1357.86 764.824 1359.5 767.042 1359.5C770.362 1359.5 802.501 1357.86 821.333 1357.86C846.261 1357.86 875.08 1359.5 879.503 1359.5C882.278 1359.5 882.836 1357.86 882.836 1355.63V1342.33C882.836 1340.66 882.278 1339.57 879.503 1339.57H871.189C855.119 1339.57 848.479 1331.81 847.363 1319.05C846.819 1310.74 846.819 1247.03 846.819 1243.71V1216.01ZM930.915 1231.54C930.357 1265.33 930.915 1298.01 930.357 1325.17C930.357 1337.35 923.704 1339.58 910.41 1339.58H903.756C901.551 1339.58 900.436 1340.67 900.436 1342.34V1355.08C900.436 1357.87 901.538 1359.52 903.756 1359.52C907.634 1359.52 935.895 1357.87 949.734 1357.87C968.021 1357.87 997.942 1359.52 1001.82 1359.52C1005.15 1359.52 1006.26 1358.4 1006.26 1355.64V1342.34C1006.26 1340.67 1005.15 1339.58 1002.94 1339.58H988.539C977.463 1339.58 974.143 1333.47 973.027 1325.73V1252.59C976.918 1251.48 981.899 1251.48 987.437 1251.48C1010.7 1251.48 1019.02 1263.66 1038.97 1298.01C1043.95 1306.35 1068.33 1351.22 1078.86 1358.96C1090.67 1358.26 1102.49 1357.9 1114.32 1357.87C1119.86 1357.87 1126.51 1358.4 1131.51 1358.4C1137.04 1358.96 1141.48 1359.52 1142.58 1359.52C1144.8 1359.52 1145.9 1357.87 1145.9 1355.64V1344.56C1145.9 1341.24 1145.36 1339.57 1143.14 1339.57C1133.17 1339.57 1125.97 1339.01 1118.21 1333.46C1107.69 1325.7 1094.94 1309.09 1087.19 1298C1064.48 1265.88 1053.4 1248.7 1040.65 1245.91V1244.83C1084.42 1229.3 1106.03 1207.16 1106.03 1168.9C1106.03 1156.16 1098.82 1140.09 1086.64 1128.47C1072.79 1116.27 1047.86 1106.87 1014.61 1106.87C1007.41 1106.87 959.215 1108.51 952.561 1108.51C942.588 1108.51 908.244 1106.87 905.468 1106.87C903.263 1106.87 902.148 1107.96 902.148 1109.63V1122.92C902.148 1125.13 902.705 1126.8 904.366 1126.8H909.917C925.428 1126.8 930.409 1132.91 930.967 1143.97V1231.54H930.915ZM976.218 1136.8C976.218 1126.81 984.532 1124.62 992.845 1124.62C1015 1124.62 1030.52 1129.59 1045.48 1139C1055.45 1145.67 1063.76 1160.61 1063.76 1177.23C1063.76 1191.64 1054.35 1234.85 992.845 1234.85C985.634 1234.85 980.096 1234.29 976.218 1233.74V1136.8Z" fill="#23201F"/>
<path fill-rule="evenodd" clip-rule="evenodd" d="M1346.84 1282.5C1346.84 1273.07 1357.36 1270.88 1362.9 1270.88H1372.33C1373.97 1270.88 1375.09 1269.21 1375.09 1267.54V1254.27C1375.09 1252.59 1373.97 1251.48 1371.77 1251.48C1369.54 1251.48 1344.61 1252.59 1324.12 1252.59C1294.2 1252.59 1267.05 1251.48 1263.73 1251.48C1261.5 1251.48 1260.94 1252.59 1260.94 1254.27V1267.54C1260.94 1269.21 1261.5 1270.32 1263.73 1270.32H1277.03C1291.43 1270.32 1304.16 1274.2 1304.16 1286.94V1307.43C1304.16 1318.52 1303.07 1325.72 1295.84 1331.27C1287 1338.47 1269.24 1343.45 1249.87 1343.45C1234.37 1343.45 1212.2 1335.13 1196.66 1318.52C1175.06 1295.8 1162.88 1264.2 1162.88 1221.54C1162.88 1196.62 1175.06 1167.25 1191.71 1148.97C1212.2 1126.8 1233.81 1120.69 1250.98 1120.69C1276.47 1120.69 1291.97 1131.78 1306.93 1147.29C1320.23 1160.59 1329.66 1177.77 1333.53 1186.63C1335.18 1191.07 1336.3 1191.62 1337.97 1191.07L1348.49 1187.75C1350.16 1187.19 1350.72 1186.07 1350.72 1183.31C1349.6 1173.32 1342.41 1121.81 1342.41 1119.04C1342.41 1115.17 1341.29 1112.94 1336.3 1112.94C1331.86 1112.94 1330.19 1114.61 1329.1 1116.81L1326.31 1121.81C1325.22 1123.48 1322.99 1123.48 1318.55 1119.6C1308.04 1111.85 1282.01 1101.87 1255.4 1101.87C1216.07 1101.87 1182.27 1113.49 1156.24 1135.66C1129.64 1158.94 1115.23 1192.73 1115.23 1226.52C1115.23 1269.74 1126.3 1299.66 1148.48 1324.03C1174.53 1352.86 1218.83 1364.48 1247.65 1364.48C1283.08 1364.48 1313 1356.73 1342.39 1342.32C1346.27 1340.65 1348.48 1339 1348.48 1336.24C1348.48 1333.45 1346.83 1330.13 1346.83 1325.15V1282.5H1346.84Z" fill="#23201F"/>
<path fill-rule="evenodd" clip-rule="evenodd" d="M1454.93 1216.01C1454.93 1212.13 1455.52 1146.22 1455.52 1140.67C1456.05 1129.04 1461.04 1126.81 1476.01 1126.81H1485.41C1488.2 1126.81 1488.76 1125.14 1488.76 1122.94V1109.64C1488.76 1107.97 1487.64 1106.88 1485.41 1106.88C1480.98 1106.88 1452.73 1108.53 1436.67 1108.53C1410.63 1109.08 1376.28 1106.88 1372.96 1106.88C1370.73 1106.88 1369.62 1107.97 1369.62 1110.2V1122.94C1369.62 1125.14 1370.17 1126.81 1372.96 1126.81H1382.92C1406.2 1126.81 1411.2 1132.36 1411.2 1138.43C1411.2 1146.22 1412.29 1201.61 1412.29 1210.48V1234.85C1412.29 1253.7 1411.76 1324.04 1411.2 1329.04C1410.08 1339.02 1401.21 1339.57 1387.36 1339.57H1375.18C1372.98 1339.57 1371.86 1341.24 1371.86 1342.89V1355.07C1371.86 1357.86 1372.98 1359.5 1375.18 1359.5C1378.5 1359.5 1410.64 1357.86 1429.5 1357.86C1454.43 1357.86 1483.23 1359.5 1487.65 1359.5C1490.42 1359.5 1490.97 1357.86 1490.97 1355.63V1342.33C1490.97 1340.66 1490.42 1339.57 1487.65 1339.57H1479.34C1463.28 1339.57 1456.62 1331.81 1455.53 1319.05C1454.94 1310.74 1454.94 1247.03 1454.94 1243.71V1216.01H1454.93ZM1753.24 1221.56C1753.24 1198.83 1752.15 1163.93 1754.91 1138.45C1756.02 1130.69 1758.79 1126.83 1772.64 1126.83H1778.16C1780.4 1126.83 1781.51 1125.15 1781.51 1122.95V1111.33C1781.51 1107.98 1780.4 1106.89 1777.63 1106.89C1773.73 1106.89 1754.35 1108.54 1742.73 1108.54C1725 1108.54 1701.16 1106.89 1697.28 1106.89C1694.52 1106.89 1693.41 1107.98 1693.41 1109.65V1122.95C1693.41 1125.71 1694.52 1126.83 1697.28 1126.83H1706.71C1716.14 1126.83 1724.44 1130.15 1727.21 1136.81C1729.99 1143.45 1731.64 1175.59 1731.64 1188.9C1732.76 1206.63 1733.31 1223.8 1733.31 1255.37V1291.94H1731.08C1724.44 1284.75 1672.93 1219.92 1662.94 1208.28C1651.32 1194.42 1587.6 1114.09 1585.93 1111.89C1583.7 1108.54 1580.38 1107.45 1572.63 1107.45C1565.99 1107.45 1554.35 1108.54 1545.47 1108.54C1539.39 1108.54 1530.53 1107.98 1523.31 1107.45C1516.11 1107.45 1510.01 1106.89 1508.92 1106.89C1506.69 1106.89 1505.6 1108.54 1505.6 1110.21V1123.51C1505.6 1125.71 1506.69 1126.83 1508.92 1126.83H1513.92C1529.42 1126.83 1543.28 1136.26 1543.28 1156.19V1214.37C1543.28 1276.96 1542.17 1316.3 1541.61 1322.97C1539.96 1335.7 1531.09 1339.58 1525.55 1339.58H1512.82C1511.14 1339.58 1510.59 1340.14 1510.59 1341.26V1355.64C1510.59 1358.4 1511.14 1359.52 1512.26 1359.52C1516.69 1359.52 1541.62 1357.87 1549.36 1357.87C1565.45 1357.87 1587.61 1359.52 1591.49 1359.52C1594.25 1359.52 1594.25 1358.4 1594.25 1356.2V1342.9C1594.25 1340.67 1594.25 1339.58 1591.49 1339.58H1579.84C1574.32 1339.58 1568.22 1333.47 1566.55 1320.74C1565.46 1315.74 1563.23 1260.35 1563.23 1227.11V1151.18H1564.34C1573.22 1161.17 1618.08 1221 1631.37 1236.52C1637.48 1243.72 1661.32 1271.96 1686.79 1302.44C1709.49 1329.6 1728.33 1352.32 1732.21 1356.2C1734.44 1357.87 1739.97 1361.75 1744.95 1361.75C1751.62 1361.75 1753.26 1356.2 1753.26 1351.22V1221.56H1753.24ZM400.594 1076.69H369.388C367.625 1076.69 366.769 1074.96 367.482 1072.51L368.883 1066.56C369.583 1064.1 372.008 1058.48 374.81 1058.48H405.315C415.833 1028.33 426.04 1003.81 444.613 983.108C454.431 971.889 473.717 959.27 496.505 959.27C516.842 959.27 528.074 971.526 528.074 979.944C528.074 990.812 521.057 996.078 514.04 996.078C502.821 996.078 499.67 989.775 498.619 982.045C498.269 978.543 494.754 971.889 484.249 971.889C451.643 971.889 444.587 1018.19 433.018 1057.46C433.018 1057.46 481.746 1058.79 521.524 1058.79C564.363 1058.79 587.306 1057.27 591.898 1057.27C596.489 1057.27 596.995 1058.79 596.995 1060.84V1072.56C596.995 1075.09 596.489 1077.15 592.922 1077.15H568.448C554.169 1077.15 547.035 1081.74 547.035 1090.39C547.035 1094.47 547.541 1100.6 549.072 1107.75C552.12 1126.09 570.99 1186.79 580.173 1215.33C586.295 1234.71 615.866 1322.44 627.591 1353.54C639.315 1329.57 679.093 1224.53 683.179 1212.79C688.276 1199.02 707.653 1140.37 715.305 1117.93C719.378 1105.19 722.451 1096.02 722.451 1088.88C722.451 1082.74 718.885 1077.15 706.135 1077.15H692.88C690.844 1077.15 690.338 1075.61 690.338 1072.56V1060.84C690.338 1058.28 690.844 1057.27 693.399 1057.27C697.99 1057.27 721.44 1058.79 753.579 1058.79C790.802 1058.79 803.551 1057.27 808.143 1057.27C811.191 1057.27 811.709 1058.28 811.709 1060.84V1073.57C811.709 1075.6 811.191 1077.14 808.143 1077.14H794.369C777.534 1077.14 767.846 1085.3 758.157 1097.02C744.902 1113.34 704.099 1217.87 695.435 1239.29C689.314 1256.13 623.531 1418.28 620.976 1423.39C618.94 1427.47 616.385 1430.01 613.843 1430.01C609.77 1430.01 607.721 1424.91 605.179 1418.28C583.953 1357.71 562.535 1297.2 540.927 1236.76L535.829 1219.4C523.586 1183.21 499.618 1109.27 492.99 1093.96C487.88 1082.24 482.796 1077.14 472.083 1077.14L424.666 1076.69C415.548 1105.08 399.426 1165.06 381.891 1209.95C360.504 1264.67 335.615 1303.58 298.094 1303.58C284.06 1303.58 272.854 1294.11 272.854 1282.88C272.854 1274.82 278.808 1267.81 287.938 1267.81C298.107 1267.81 303.359 1277.64 304.423 1283.59C305.123 1287.09 307.575 1289.55 310.376 1289.55C327.211 1289.55 346.134 1260.1 365.07 1195.24L400.594 1076.69ZM1786.78 777.719C1787.49 777.239 1787.26 777.239 1788.93 777.421C1797.57 778.381 1829.01 781.325 1889.87 781.325H1912.04C1930.13 781.325 1949.62 780.585 1970.75 779.729C1981.36 779.431 2046.44 780.235 2059.74 780.235C2071.92 780.235 2109.59 778.562 2113.5 778.562C2115.7 778.562 2117.38 779.678 2117.38 782.44V794.619C2117.38 796.85 2116.82 798.497 2113.5 798.497H2105.16C2095.2 798.497 2094.64 804.605 2096.84 807.926C2100.16 812.919 2146.17 886.6 2155.03 899.907C2163.34 886.056 2209.32 819.028 2211.54 814.592C2215.97 805.721 2216.53 798.51 2204.31 798.51H2195.47C2192.68 798.51 2191.56 796.863 2191.56 794.632V782.453C2191.56 780.248 2192.68 778.575 2195.47 778.575C2198.79 778.575 2226.48 780.248 2243.12 780.248C2253.08 780.248 2272.48 778.575 2275.8 778.575C2278.56 778.575 2279.68 779.691 2279.68 783.011V794.632C2279.68 797.42 2278.56 798.51 2276.36 798.51H2270.81C2261.94 798.51 2255.84 800.183 2250.87 802.945C2242.56 807.381 2178.27 897.689 2165.53 917.092V963.628C2166.09 977.479 2165.53 992.46 2166.65 999.087C2167.76 1010.71 2176.63 1011.27 2186.61 1011.27H2193.81C2196.57 1011.27 2197.68 1012.38 2197.68 1014.03V1027.35C2197.68 1029.55 2196.57 1031.23 2193.25 1031.23C2189.93 1031.23 2158.9 1029.55 2140.6 1029.55C2128.43 1029.55 2096.3 1031.23 2092.95 1031.23C2090.19 1031.23 2089.08 1030.11 2089.08 1026.76V1014.6C2089.08 1012.93 2090.19 1011.25 2092.4 1011.25H2100.71C2118.44 1011.25 2121.79 1007.93 2122.32 1000.18C2122.87 995.183 2122.87 975.249 2122.87 942.552V922.617C2117.91 912.631 2050.3 813.464 2041.44 805.15C2036.76 800.468 2028.9 798.938 2023.9 798.588C2027.2 813.606 2031.66 833.295 2033.42 842.814C2033.98 845.045 2032.86 846.135 2030.63 847.25L2021.23 850.038C2017.88 851.128 2016.24 850.596 2015.12 847.808C2008.48 833.956 1999.07 815.656 1987.43 805.15C1973.58 800.157 1933.05 799.599 1923.06 799.599V892.696C1923.06 950.853 1923.06 992.421 1923.62 996.856C1924.74 1005.7 1927.5 1011.24 1936.36 1011.24H1957.41C1960.17 1011.24 1961.28 1012.91 1961.28 1016.23V1027.85C1961.28 1029.53 1960.17 1031.2 1957.41 1031.2C1953.53 1031.2 1919.18 1029.53 1900.9 1029.53C1885.4 1029.53 1849.37 1031.2 1844.95 1031.2C1841.63 1031.2 1840.51 1029.53 1840.51 1026.21V1015.12C1840.51 1012.36 1841.63 1011.24 1843.83 1011.24H1866C1874.31 1011.24 1878.17 1006.8 1878.73 1002.37C1880.4 981.318 1880.4 951.955 1880.4 918.726V799.586C1869.87 799.586 1838.76 799.028 1818.27 804.58C1804.42 815.111 1792.78 832.854 1785.57 847.237C1784.48 849.468 1782.81 851.115 1780.6 850.026L1770.62 846.122C1767.85 845.032 1767.85 842.801 1768.39 840.597C1771.6 830.519 1781.23 796.37 1785.74 779.6C1786.02 778.731 1786.09 778.199 1786.78 777.719ZM1991.28 1244.28H2066.62C2064.42 1236.52 2038.38 1153.41 2037.26 1148.98C2036.15 1145.66 2035.59 1143.43 2033.94 1143.43C2032.27 1143.43 2031.15 1145.1 2029.51 1149.54C2027.83 1153.97 1994.05 1238.73 1991.28 1244.28ZM1876.27 1216.01V1243.72C1876.27 1247.04 1876.27 1310.75 1876.83 1319.06C1877.94 1331.83 1884.61 1339.58 1900.66 1339.58H1907.04C1916.47 1339.58 1925.33 1334.03 1929.77 1327.96C1933.65 1323.53 1961.89 1257.03 1975.21 1229.33C1979.07 1221.57 2011.76 1146.24 2015.08 1136.81C2016.2 1133.49 2019.52 1127.38 2015.64 1125.72C2014.53 1124.63 2012.88 1121.85 2013.41 1120.2C2012.88 1119.08 2013.97 1117.41 2018.96 1116.29C2029.49 1114.65 2045 1104.67 2050 1100.24C2050.62 1099.02 2051.57 1098 2052.76 1097.31C2053.94 1096.62 2055.3 1096.29 2056.66 1096.36C2059.98 1096.36 2061.1 1098.59 2062.19 1102.47C2069.95 1124.63 2098.21 1203.84 2105.4 1226.01C2113.72 1253.72 2137.56 1319.08 2141.42 1324.63C2148.62 1334.61 2158.04 1339.6 2167.46 1339.6H2177.98C2180.21 1339.6 2180.77 1341.27 2180.77 1342.92V1354.54C2180.77 1356.21 2180.21 1359.53 2176.89 1359.53C2170.23 1359.53 2140.88 1357.88 2128.13 1357.88C2117.6 1357.88 2084.91 1359.53 2077.71 1359.53C2073.84 1359.53 2073.28 1356.77 2073.28 1354.54V1342.92C2073.28 1341.27 2073.84 1339.6 2076.04 1339.6H2084.91C2091.55 1339.6 2093.78 1334.6 2093.78 1330.17C2091.55 1319.08 2076.61 1274.77 2072.18 1262.02H1982.96C1980.75 1268.66 1963.02 1314.67 1960.82 1321.29C1957.47 1332.37 1959.14 1339.58 1970.78 1339.58H1984.63C1987.95 1339.58 1988.51 1341.26 1988.51 1343.46V1355.64C1988.51 1357.87 1987.95 1359.52 1985.19 1359.52C1980.75 1359.52 1951.4 1357.87 1942.53 1357.87H1850.81C1831.99 1357.87 1799.84 1359.52 1796.52 1359.52C1794.29 1359.52 1793.2 1357.87 1793.2 1355.08V1342.9C1793.2 1341.26 1794.29 1339.58 1796.52 1339.58H1808.7C1822.55 1339.58 1831.42 1339.02 1832.51 1329.05C1833.07 1324.06 1833.62 1253.71 1833.62 1234.86V1210.49C1833.62 1201.62 1832.51 1146.23 1832.51 1138.45C1832.51 1132.36 1827.54 1126.83 1804.26 1126.83H1794.27C1791.51 1126.83 1790.95 1125.15 1790.95 1122.95V1110.21C1790.95 1107.98 1792.07 1106.89 1794.27 1106.89C1797.62 1106.89 1831.96 1109.1 1858.01 1108.54C1874.06 1108.54 1902.31 1106.89 1906.75 1106.89C1908.98 1106.89 1910.09 1107.98 1910.09 1109.65V1122.95C1910.09 1125.15 1909.54 1126.83 1906.75 1126.83H1897.32C1882.38 1126.83 1877.38 1129.06 1876.83 1140.68C1876.83 1146.22 1876.27 1212.13 1876.27 1216.01ZM862.849 782.44V795.176C862.849 797.407 861.189 798.497 858.971 798.497H846.235C839.037 798.497 830.723 799.612 830.723 806.836C830.723 819.573 840.152 841.18 855.093 887.716C859.529 901.567 880.034 965.833 883.354 974.704H885.014C888.335 963.057 915.493 894.356 918.256 886.043C939.306 824.54 946.517 809.586 946.517 804.048C946.517 801.285 944.299 798.497 934.87 798.497H928.787C926.57 798.497 925.454 797.407 925.454 794.619V781.882C925.454 780.235 926.57 778.562 928.787 778.562C932.108 778.562 960.927 780.235 973.663 780.235H1058.36L1182.46 779.678C1188.01 779.678 1195.2 778.562 1197.4 778.562C1198.52 778.562 1199.63 779.678 1200.75 786.318C1201.84 791.311 1217.36 838.962 1218.45 842.827C1219.01 845.058 1219.01 846.148 1217.92 846.705L1209.05 850.609C1207.94 851.141 1205.7 851.141 1204.06 848.378C1202.94 846.705 1176.34 815.682 1166.95 806.836C1161.13 801.665 1153.66 798.712 1145.88 798.497L1087.15 797.407V891.594C1090.47 891.594 1123.15 889.921 1127.59 888.831C1141.98 884.927 1147.54 877.184 1147.54 859.999C1147.54 857.794 1148.09 857.237 1150.3 857.237L1162.5 857.795C1164.71 857.795 1166.38 858.91 1165.82 861.115C1164.71 866.108 1164.71 895.459 1164.71 900.452C1164.71 912.631 1166.38 929.816 1166.94 937.001C1166.94 939.232 1165.82 939.789 1164.15 939.789L1152.53 940.879C1150.86 940.879 1149.77 940.879 1149.21 938.674C1146.43 924.822 1143.1 915.951 1128.69 912.631C1112.08 908.753 1092.67 908.753 1087.14 908.753V927.598C1087.14 946.975 1088.24 979.127 1088.24 986.312C1088.24 1012.36 1104.31 1014 1128.13 1014C1152.52 1014 1168.03 1013.47 1186.87 998.503C1191.31 995.183 1210.69 970.255 1216.24 961.397C1219 957.519 1221.79 956.961 1223.43 958.077L1232.31 963.044C1233.42 963.602 1234.54 965.275 1233.98 966.948L1214.04 1025.66C1212.93 1028.42 1210.14 1031.21 1207.94 1031.21C1204.06 1031.21 1174.71 1029.54 1058.34 1029.54C1048.37 1029.54 1017.89 1031.21 1011.25 1031.21C1008.49 1031.21 1007.93 1029.54 1007.93 1027.34V1014.6C1007.93 1012.37 1009.03 1011.25 1011.81 1011.25H1016.8C1042.84 1011.25 1044.5 1009.05 1044.5 1001.29V883.28C1044.5 853.917 1043.95 817.899 1043.4 812.348C1041.74 800.727 1038.41 798.497 1016.26 798.497H1003.04C992.508 798.497 984.752 801.843 979.772 806.836C969.24 817.355 939.332 889.921 933.794 904.343C928.813 915.964 883.38 1024.57 878.945 1031.78C877.284 1034.55 874.509 1036.19 870.073 1036.19C865.638 1036.19 862.862 1032.32 861.202 1027.88C849.01 995.196 819.647 914.848 815.224 902.67L811.346 890.491C801.93 865.006 785.303 814.592 781.425 809.054C776.989 802.945 772.554 798.523 765.355 798.523H759.817C757.6 798.523 757.042 796.875 757.042 795.202V781.351C757.042 779.703 758.144 778.588 760.362 778.588C763.125 778.588 793.604 780.261 808.013 780.261C821.294 780.261 855.093 778.588 858.426 778.588C861.747 778.562 862.849 779.678 862.849 782.44Z" fill="#23201F"/>
<path fill-rule="evenodd" clip-rule="evenodd" d="M1268.34 582.239V310.833H1325.31V582.239H1268.34ZM960.615 582.239V310.833H1015.79V582.239H960.615ZM1034.79 582.239V310.833H1093.62V582.239H1034.79ZM1112.65 582.239V310.833H1171.48V582.239H1112.65ZM1249.32 310.833V582.239H1190.48V310.833H1249.32ZM1300.84 291.664H983.857L1146.55 191.563L1300.84 291.664ZM947.347 291.664H811.554V190.526H1111.74L947.347 291.664ZM1180.12 190.526H1472.57V291.664H1335.97L1180.12 190.526ZM1430.72 171.344H853.407C909.929 69.3624 1018.01 0.453979 1142.04 0.453979C1266.09 0.453979 1374.16 69.3753 1430.72 171.344ZM905.766 566.221L902.446 576.35L911.071 570.086L919.683 576.35L916.401 566.221L925.026 559.957H914.378L911.084 549.827L907.789 559.957H897.141L905.766 566.221ZM858.686 503.525L855.379 513.642L864.003 507.39L872.628 513.642L869.334 503.512L877.959 497.248H867.311L864.016 487.118L860.722 497.248H850.074L858.686 503.525ZM826.339 426.978L823.019 437.107L831.644 430.843L840.269 437.107L836.974 426.978L845.599 420.713H834.951L831.657 410.584L828.375 420.713H817.727L826.339 426.978ZM941.627 582.239H811.554V339.873L815.899 343.037L812.591 353.167L821.216 346.902L829.841 353.167L826.547 343.037L835.172 336.773H824.511L821.229 326.644L817.935 336.773H811.567V310.833H941.627V582.239ZM941.627 601.408V673.455H811.554V601.408H941.627ZM1344.31 601.408H1472.57V673.455H1344.31V601.408ZM1230.3 652.729L1238.93 646.465H1228.27L1225 636.336L1221.68 646.465H1211.05L1219.66 652.729L1216.37 662.859L1225 656.607L1233.62 662.859L1230.3 652.729ZM1306.49 622.017L1315.13 615.753H1304.47L1301.18 605.623L1297.88 615.753H1287.25L1295.86 622.017L1292.56 632.146L1301.18 625.882L1309.81 632.146L1306.49 622.017ZM1053.83 652.729L1050.52 662.859L1059.15 656.607L1067.77 662.859L1064.48 652.729L1073.1 646.465H1062.44L1059.15 636.336L1055.85 646.465H1045.19L1053.83 652.729ZM977.632 622.017L974.324 632.146L982.949 625.882L991.574 632.146L988.28 622.017L996.905 615.753H986.256L982.962 605.623L979.668 615.753H969.02L977.632 622.017ZM1325.31 601.408V673.455H1150.83L1147.82 664.169L1156.43 657.917H1145.78L1142.49 647.788L1139.2 657.917H1128.55L1137.19 664.169L1134.16 673.455H960.628V601.408H1325.31ZM1149.95 673.455H1135.05L1142.5 668.047L1149.95 673.455ZM1378.36 566.221L1387 559.957H1376.36L1373.07 549.827L1369.77 559.957H1359.11L1367.72 566.221L1364.43 576.35L1373.07 570.086L1381.68 576.35L1378.36 566.221ZM1425.43 503.525L1434.06 497.261H1423.43L1420.13 487.131L1416.84 497.261H1406.17L1414.78 503.525L1411.5 513.642L1420.13 507.39L1428.75 513.642L1425.43 503.525ZM1457.8 426.978L1466.44 420.713H1455.77L1452.48 410.584L1449.19 420.713H1438.55L1447.16 426.978L1443.87 437.107L1452.48 430.843L1461.12 437.107L1457.8 426.978ZM1472.57 582.239H1344.31V310.833H1472.57V336.773H1466.22L1462.92 326.644L1459.63 336.773H1448.97L1457.58 343.037L1454.28 353.167L1462.92 346.902L1471.53 353.167L1468.21 343.037L1472.57 339.873V582.239Z" fill="#23201F"/>
</svg>
